<?xml version="1.0" encoding="utf-8"?><svg xmlns="http://www.w3.org/2000/svg" xmlns:xlink="http://www.w3.org/1999/xlink"><symbol viewBox="0 0 24 24" id="close" xmlns="http://www.w3.org/2000/svg"><path d="M4.707 3.293L3.293 4.707 10.586 12l-7.293 7.293 1.414 1.414L12 13.414l7.293 7.293 1.414-1.414L13.414 12l7.293-7.293-1.414-1.414L12 10.586 4.707 3.293z"/></symbol><symbol fill="none" viewBox="0 0 1920 162" id="decor-line-big" xmlns="http://www.w3.org/2000/svg"><path d="M1920 81c-106.67-106.667-213.33-106.667-320 0-106.67 106.667-213.33 106.667-320 0-106.67-106.667-213.33-106.667-320 0-106.667 106.667-213.333 106.667-320 0S426.667-25.667 320 81 106.667 187.667 0 81" stroke="#33363F" stroke-opacity=".5" stroke-width="2"/></symbol><symbol fill="none" viewBox="0 0 846 720" id="decor-line-small" xmlns="http://www.w3.org/2000/svg"><path d="M.748 1.516c82.577-2.206 129.49 37.61 140.739 119.447 11.249 81.837 58.161 121.653 140.739 119.447 82.577-2.206 129.49 37.61 140.738 119.447 11.249 81.837 58.162 121.653 140.739 119.447 82.577-2.206 129.49 37.61 140.739 119.447 11.249 81.837 58.161 121.653 140.739 119.447" stroke="#33363F" stroke-width="2"/></symbol><symbol fill="none" viewBox="0 0 558 480" id="plane" xmlns="http://www.w3.org/2000/svg"><path d="M220.386 141.635c0-5.839-4.341-10.78-9.731-10.78l-16.32-.15-.149 21.26 16.319.15c5.39.15 9.881-4.641 9.881-10.48zm-24.703 8.833l.149-18.116 14.823.15c4.641 0 8.234 4.192 8.234 9.133 0 4.94-3.743 8.983-8.384 8.983l-14.822-.15zm25.003-37.13c0-5.839-4.342-10.63-9.732-10.78l-16.319-.15-.15 21.26 16.32.15c5.39.15 9.731-4.641 9.881-10.48zm-24.703 8.683l.149-18.116 14.822.15c4.642 0 8.235 4.192 8.235 9.133 0 4.941-3.743 8.983-8.384 8.983l-14.822-.15zm345.102 6.439l.299-28.597-105.102-1.048-.15 28.597 104.953 1.048zm-103.606-2.695l.15-25.303 102.109.899-.15 25.302-102.109-.898z" fill="#ABAEB7"/><path d="M500.511 113.487c0-5.989-6.138-10.929-13.924-10.929-7.635 0-13.924 4.641-14.073 10.63 0 5.988 6.138 10.929 13.924 10.929 7.635 0 13.923-4.791 14.073-10.63zm-26.5-.299c0-5.091 5.689-9.133 12.576-8.983 6.887 0 12.427 4.192 12.427 9.282 0 5.091-5.689 9.133-12.576 8.983-6.888 0-12.427-4.192-12.427-9.282zm29.345 13.175l.15-25.003 35.483.3-.15 25.003-35.483-.3zm1.647-23.805l-.15 22.458 32.938.299.15-22.457-32.938-.3zm4.791 16.02c0-2.096 1.797-3.743 3.893-3.743s3.892 1.647 3.892 3.743c0 1.048-.449 1.946-1.198 2.695-.748.749-1.646 1.048-2.694 1.048-2.096 0-3.893-1.797-3.893-3.743zm7.186 0h-.599c0-1.347-1.197-2.395-2.545-2.395-1.347 0-2.545 1.048-2.545 2.395 0 1.348 1.198 2.545 2.545 2.545a2.48 2.48 0 001.797-.748 2.48 2.48 0 00.748-1.797h.599zm-5.24-11.528c0-1.198.899-2.096 2.096-2.096 1.198 0 2.096.898 2.096 2.096 0 1.048-.898 1.946-2.096 1.946-1.197.15-2.096-.749-2.096-1.946zm3.593 0h-.598c0-.449-.3-.749-.749-.749s-.749.3-.749.749.3.748.749.748.749-.299.749-.748h.598zm9.583 11.528c0-2.994 2.545-5.39 5.539-5.24 2.994 0 5.39 2.395 5.39 5.24 0 2.994-2.545 5.24-5.54 5.24-2.994.15-5.389-2.246-5.389-5.24zm10.18 0h-.598c0-2.246-1.797-4.042-4.193-4.042-2.245 0-4.192 1.796-4.192 3.892 0 2.246 1.797 4.043 4.192 4.043 2.246 0 4.193-1.797 4.193-3.893h.598zm-8.534-11.379c0-2.096 1.797-3.743 3.893-3.743s3.893 1.647 3.893 3.743-1.797 3.743-3.893 3.743c-2.246 0-3.893-1.647-3.893-3.743zm7.037 0H533c0-1.347-1.197-2.395-2.545-2.395-1.347 0-2.545 1.048-2.545 2.395 0 1.348 1.198 2.546 2.545 2.546 1.497 0 2.545-1.048 2.545-2.396l.599-.15zm-64.08 5.989c0-5.989-6.587-10.93-14.822-10.93-8.235-.149-14.972 4.642-14.972 10.63 0 5.989 6.588 10.93 14.822 10.93 8.235 0 14.972-4.641 14.972-10.63zm-28.297-.3c0-5.09 6.139-9.133 13.475-8.983 7.336 0 13.325 4.192 13.325 9.283 0 5.09-6.138 9.133-13.475 8.983-7.486 0-13.325-4.192-13.325-9.283zm17.068 196.133l-.449 62.583c0 5.689 4.192 10.33 9.433 10.33l59.438.599c5.24 0 9.432-4.491 9.582-10.181l.449-62.582c0-5.69-4.192-10.331-9.432-10.331l-11.079-.15v-.599h-49.707v.15c-4.641.749-8.235 4.941-8.235 10.181zm.749 62.583l.449-62.583c0-4.342 2.995-7.935 6.738-8.684v80.1c-3.893-.449-7.187-4.192-7.187-8.833zm68.122-70.818c4.492 0 8.085 4.043 8.085 8.984l-.449 62.582c0 4.941-3.743 8.834-8.235 8.834l-10.33-.15v-80.25h10.929zm-12.576-.449v79.352h-46.712v-79.352h46.712z" fill="#ABAEB7"/><path d="M532.701 337.767a12.618 12.618 0 001.048-4.941l.15-18.116c0-4.192-1.647-7.186-3.893-7.186l-7.935-.15c-1.198 0-2.246.749-2.995 2.246a12.636 12.636 0 00-1.048 4.941v18.116c0 4.192 1.647 7.186 3.893 7.186h7.935c1.048.15 2.096-.749 2.845-2.096zm-10.78.449c-1.347 0-2.395-2.545-2.395-5.539h-.749l.749-.15.149-18.116c0-1.647.3-3.144.899-4.192.299-.599.898-1.348 1.647-1.348l7.935.15c1.347 0 2.395 2.545 2.395 5.689l-.15 18.116c0 1.647-.299 3.144-.898 4.192-.299.599-.898 1.348-1.647 1.348l-7.935-.15zm11.528 27.398l.15-18.116c0-4.192-1.647-7.186-3.893-7.186l-7.935-.15c-2.246 0-3.892 2.994-4.042 7.187l-.15 18.116v.149c0 4.193 1.647 7.187 3.893 7.187l7.935.15c2.395 0 4.042-3.144 4.042-7.337zm-11.828 5.54c-1.347 0-2.395-2.545-2.395-5.54h-.749l.749-.149.15-18.116c0-3.444 1.347-5.69 2.545-5.69l7.935.15c1.348 0 2.396 2.545 2.396 5.689l-.15 18.116c0 3.444-1.348 5.69-2.545 5.69l-7.936-.15zm9.283-78.902l.15-19.314-17.816-.15-.15 19.314 17.816.15zm-16.169-1.797l.149-16.02 14.673.15-.15 16.02-14.672-.15zm14.972 118.728l.149-18.116-16.619-.15-.149 18.116 16.619.15zm-14.972-1.797l.149-14.822 13.625.15-.15 14.822-13.624-.15zm-314.261-4.94l3.893 17.517 19.014-5.09-3.893-17.518-19.014 5.091zm5.091 15.571l-3.294-14.373 16.169-4.342 3.294 14.373-16.169 4.342zm14.822-124.268l4.192-17.517-19.014-5.39-4.192 17.517 19.014 5.39zm-13.625-20.811l16.02 4.641-3.443 14.223-16.02-4.641 3.443-14.223zm131.903 122.171l.898-112.439-101.809-.898-.898 112.439 101.809.898zm-100.162-2.545l.898-109.145 98.815.898-.899 109.145-98.814-.898z" fill="#ABAEB7"/><path d="M540.037 414.872l.599-147.623-101.809-.599-.599 147.624 101.809.598zm-100.312-2.695l.599-143.431 98.815.599-.599 143.431-98.815-.599zm-161.247-95.97c-12.427-.15-22.608 9.732-22.758 21.859-.149 12.127 9.882 22.158 22.309 22.308 12.426.15 22.607-9.732 22.757-21.859.15-12.127-9.882-22.159-22.308-22.308zm20.661 22.308c-.15 11.229-9.582 20.362-21.11 20.362-11.529-.15-20.811-9.283-20.662-20.662.15-11.228 9.582-20.361 21.111-20.361 11.378.149 20.661 9.282 20.661 20.661zm8.085 17.219c-1.647.149-3.294.598-4.642 1.646l-9.132 6.738c-1.198.898-2.097 2.096-2.546 3.294h-.299c-.898 0-1.946.299-2.695.898-.898.749-1.497 1.647-1.647 2.845a4.108 4.108 0 00.898 3.144l6.289 8.085c1.347 1.646 4.042 2.096 5.839.898.149 0 .299.15.449.15.149.748.299 1.347.748 1.946 1.348 1.647 3.893 2.096 5.69.749l15.421-11.529c1.796-1.347 2.096-3.743.748-5.539-.599-.749-1.497-1.198-2.395-1.498 0 0 .15 0 .15-.149 1.946-1.498 2.245-4.192.898-5.989l-5.839-7.486c-.898-1.048-2.096-1.647-3.444-1.647-1.048 0-1.946.299-2.695.898-1.048.449-1.497 1.348-1.796 2.546zm-12.427 25.602l-6.288-8.085c-.899-1.198-.599-2.695.449-3.594 1.048-.898 2.845-.598 3.593.45l6.288 8.084c.45.599.599 1.198.45 1.947-.15.748-.45 1.347-1.048 1.647-.45.299-1.048.599-1.647.449-.45.15-1.198-.3-1.797-.898zm26.201-11.379c.748 1.048.599 2.395-.449 3.294l-15.421 11.528c-.45.3-.899.449-1.498.449-.748 0-1.347-.299-1.796-.898a1.69 1.69 0 01-.449-1.647c.149-.599.449-1.198.898-1.497l15.421-11.529c1.048-.898 2.545-.748 3.294.3zm-4.192-1.797c-.15 0-.15 0 0 0l-15.421 11.529c0-.899-.3-1.797-.899-2.546l-6.288-8.084c-.449-.45-.898-.899-1.347-1.198.449-.898 1.048-1.797 1.946-2.545l9.133-6.738c1.048-.748 2.246-1.198 3.593-1.347.15.599.449 1.198.749 1.796l5.839 7.486c.449.899 1.497 1.498 2.695 1.647zm-2.995-13.325l5.839 7.486c.899 1.198.749 2.845-.449 3.743-.449.3-1.048.599-1.647.599a2.62 2.62 0 01-2.096-1.048l-5.839-7.486c-.449-.599-.599-1.347-.599-1.946.15-.749.45-1.348 1.048-1.797 1.048-.898 2.845-.749 3.743.449zm-15.72-62.133c0-.15 0-.15 0 0-.899-.899-1.947-1.348-3.144-1.348-1.198 0-2.396.449-3.144 1.348l-6.738 6.737c-1.647 1.647-1.647 4.492.15 6.138.749.749 1.797 1.198 2.845 1.198.299 1.647 1.197 2.995 2.395 4.192l8.235 7.786c1.048 1.048 2.395 1.647 3.743 2.096 0 1.048.449 1.946 1.347 2.695 1.647 1.497 4.492 1.497 6.139-.15l7.186-7.336c.749-.749 1.198-1.797 1.198-2.995 0-1.048-.449-2.096-1.198-2.844 0-.15.15-.3.15-.449.599-.15 1.347-.45 1.796-1.048.749-.749 1.198-1.797 1.198-2.845 0-1.048-.449-2.096-1.198-2.845l-13.923-13.325c-.749-.748-1.797-1.048-2.845-1.048-1.048 0-2.096.449-2.994 1.198-.749.898-1.048 1.946-1.198 2.845zm-11.678 11.678a2.621 2.621 0 010-3.743l6.737-6.738c1.048-1.048 2.845-1.048 3.893 0a2.621 2.621 0 010 3.743l-6.738 6.738c-.598.599-1.197.748-1.946.748-.898 0-1.497-.299-1.946-.748zm29.345 7.036c.449.45.748 1.049.748 1.797a2.48 2.48 0 01-.748 1.797l-7.187 7.336c-.449.449-1.198.749-1.946.749a2.48 2.48 0 01-1.797-.749 2.48 2.48 0 01-.748-1.797c0-.748.299-1.347.748-1.796l7.187-7.337a2.621 2.621 0 013.743 0zm-2.396-2.395c-.898.15-1.796.599-2.395 1.198l-7.187 7.336c-.449.449-.748 1.048-.898 1.497-1.048-.299-2.096-.748-2.845-1.647l-8.234-7.785c-.899-.898-1.647-2.096-1.947-3.294.599-.15 1.198-.599 1.647-1.048l6.738-6.737c.748-.749 1.197-1.797 1.197-2.995l13.924 13.475zm-9.582-17.817l13.924 13.325c.449.45.749 1.048.749 1.647s-.3 1.198-.599 1.647c-.449.449-1.048.749-1.647.749s-1.198-.3-1.647-.599l-13.924-13.325a2.35 2.35 0 010-3.294c.749-1.048 2.246-1.048 3.144-.15zm10.93-103.007v.899c15.271.748 27.997 14.522 29.045 34.285h.599v-.299c-.149-18.865-13.474-34.286-29.644-34.885 0 0 0-.149 0 0zm-1.498 35.933h6.139l33.387.449v-1.048l-39.526-.3v.899zm46.114 28.597h.898c.749 15.121 14.673 27.698 34.586 28.895v.599h-.3c-19.014-.149-34.585-13.325-35.184-29.494zm36.232-1.348v5.989l.3 33.088h-.899l-.449-39.077h1.048zm13.175-161.547c0 .15.15 0 .15 0h.898c-.748-20.811-17.367-37.88-37.579-38.179h-.3v.749c21.26 1.497 35.933 17.817 36.831 37.43zm-75.009 0h.898v-.15c.749-19.314 15.272-35.483 36.083-37.28l.299 39.226h1.048l-.299-41.023h-1.048v1.048c-19.913.749-36.382 17.518-36.981 38.179zm-186.55 348.846h-.748c-.599 16.619-13.325 30.393-31.591 31.74v.599h.299c17.368-.299 31.591-14.672 32.04-32.339.15 0 .15 0 0 0z" fill="#ABAEB7"/><path d="M115.134 437.03h-.898l-.3 42.97h.899l.299-42.97zm44.616-140.137c0-2.096-.149-3.294-.149-3.294l.149-78.453c0-8.983-4.491-14.073-12.576-14.073h-28.746c-4.492-.449-7.935.449-10.481 2.994-2.844 2.845-4.341 7.486-4.341 13.774v76.806c-.15 1.498-.3 4.492-.3 7.935.15 22.159 7.786 26.95 14.373 26.95h27.848c2.845 0 5.39-1.198 7.486-3.444 5.989-6.587 6.737-21.11 6.737-29.195zm-18.116 30.094v-2.995h-22.008v2.995h-1.947c-9.881 0-11.977-13.176-12.127-24.255 0-3.443.15-6.288.299-7.935V217.692c0-5.54 1.198-9.582 3.594-11.978 2.096-1.946 4.94-2.845 8.833-2.395l28.896.149c6.737 0 10.181 3.893 10.33 11.529l-.149 78.453s0 1.197.149 2.994c0 6.288-.449 21.41-6.138 27.698-1.647 1.797-3.593 2.695-5.839 2.695l-3.893.15zm-1.497-1.198h-18.865v-.15h18.865v.15z" fill="#ABAEB7"/><path d="M113.038 317.854a2.08 2.08 0 00-1.647.299c-.599.449-1.048 1.198-.898 2.246 0 .898.299 1.946.898 2.845 1.048 1.796 5.69 2.694 6.738 2.844l1.646.3-3.892-6.438c-.899-1.048-1.797-1.947-2.845-2.096zm1.497 2.994l1.947 3.144c-1.797-.449-3.594-1.198-3.893-1.647-.599-1.048-.749-2.395-.299-2.844.149-.15.299-.15.598-.15.45.15 1.198.748 1.647 1.497zm36.532 2.546c1.198-1.797 1.048-4.192-.15-5.09a2.076 2.076 0 00-1.647-.3c-1.048.15-1.946 1.048-2.695 2.096l-3.892 6.288 1.647-.299c1.048-.15 5.689-1.048 6.737-2.695zm-3.144-2.396c.449-.748 1.048-1.347 1.647-1.497.299 0 .449 0 .599.15.149.15.299.449.299.898 0 .599-.15 1.348-.599 1.947-.299.598-2.096 1.197-3.893 1.647l1.947-3.145zm-5.69-34.285c4.192-1.647 9.582-9.433 9.582-12.876v-8.534c.449 2.844 1.048 4.192 1.797 4.192.299 0 .449-.15.749-.3.449-.598.748-1.647.748-6.737v-4.791c0-2.845-.15-5.989-.15-9.432 0-3.444 0-6.588.15-9.433 0-2.545.15-4.791.15-6.587 0-3.594-.15-5.24-1.348-5.24-2.395 0-2.695 13.325-2.695 21.11v1.647c0 3.893.15 7.186.3 9.881h-.15c-.599-.299-1.198.15-2.246 1.048-2.096 1.947-7.186 6.289-17.367 6.289-10.181 0-15.271-4.492-17.368-6.438-1.048-.899-1.497-1.348-2.245-1.048l-.449.449c.299-3.893.299-8.384.299-11.828v-1.647c-.15-12.876-1.048-19.463-2.695-19.463-.299 0-.449.149-.749.299-.449.599-.748 1.647-.748 6.737v4.791c0 2.845.15 5.989.15 9.433 0 3.443 0 6.587-.15 9.432 0 2.545-.15 4.791-.15 6.588 0 3.593.15 5.24 1.348 5.24 1.048 0 1.796-2.845 2.096-6.738v11.229c0 3.594 5.39 11.379 9.582 12.876.449.15 1.048.3 1.497.449 2.545 1.048 5.539 1.498 8.983 1.498 3.444.149 6.588-.45 8.983-1.348 1.048-.449 1.647-.599 2.096-.748zm10.331-36.831v-1.647c0-8.684.449-14.972 1.048-17.967v8.385c0 2.844-.15 5.988-.15 9.432s0 6.588.15 9.432c0 3.743.15 6.738 0 8.534-.599-2.545-1.048-8.085-1.048-16.169zm-43.119 16.169c-.15-1.647 0-4.791 0-8.384 0-2.845.149-5.989.149-9.432v-2.695c0-2.396 0-4.791-.149-6.887 0-3.743-.15-6.738 0-8.385.449 2.695.898 8.235 1.048 16.17v1.647c0 8.684-.449 14.972-1.048 17.966zm13.624 19.613a18.404 18.404 0 01-1.497-.449c-3.444-1.347-8.534-8.534-8.534-11.378v-12.128c.15.15.299.15.449.3 2.246 1.946 7.636 6.737 18.266 6.737 10.63 0 16.02-4.641 18.415-6.587.15-.15.3-.3.45-.3v12.127c0 2.845-5.091 10.032-8.684 11.379-.449.15-.899.299-1.647.599-2.246.898-5.24 1.347-8.534 1.347-3.444-.299-6.288-.748-8.684-1.647zm28.447-65.427l.449-.449v-5.24c0-2.096-9.283-6.139-10.93-6.139l-9.282.15-8.834-.299c-1.796 0-11.378 3.892-11.378 6.138v5.39l.449.299c.449.3.898 0 1.647-.449 1.946-1.347 6.887-4.641 18.116-4.641s16.319 3.443 18.116 4.791c.749.449 1.198.749 1.647.449zm-19.763-6.737c-11.229 0-16.619 3.294-18.715 4.791v-3.444c.898-1.198 8.085-4.641 9.881-4.641l8.834.15 9.282-.15c1.797 0 8.684 3.593 9.433 4.641v3.444c-2.246-1.497-7.486-4.791-18.715-4.791zm160.349-86.089c0 1.348 1.048 2.396 2.246 2.545 1.198 0 2.246-1.048 2.246-2.395 0-1.348-1.048-2.396-2.246-2.545-1.348 0-2.246 1.048-2.246 2.395zm196.282-14.523c0-1.347-1.048-2.396-2.246-2.545-1.197 0-2.245 1.048-2.245 2.395 0 1.348 1.048 2.545 2.245 2.545 1.198 0 2.246-1.048 2.246-2.395zm-31.89-.299c0-1.347-1.048-2.395-2.246-2.545-1.198 0-2.246 1.048-2.246 2.396 0 1.347 1.048 2.395 2.246 2.545 1.198 0 2.246-1.048 2.246-2.396zM206.313 230.418c-1.198 0-2.246 1.048-2.246 2.395 0 1.348 1.048 2.396 2.246 2.546 1.198 0 2.246-1.048 2.246-2.396 0-1.347-1.048-2.395-2.246-2.545zm-.599-89.383c0-1.347-1.048-2.395-2.246-2.545-1.197 0-2.245 1.048-2.245 2.396 0 1.347 1.048 2.395 2.245 2.545 1.348 0 2.246-1.048 2.246-2.396zm.15-28.446c0-1.347-1.048-2.395-2.246-2.545-1.198 0-2.246 1.048-2.246 2.396 0 1.347 1.048 2.545 2.246 2.545 1.198.15 2.246-1.048 2.246-2.396zM74.11 317.554l.3-108.097H51.653l-.3 108.097h22.758zm-21.26-1.647l.3-104.803h19.763l-.3 104.803H52.852zM191.491 293v102.857h5.839V293h-5.839zm4.342 1.647v99.563h-2.845v-99.563h2.845zm339.862-95.82h5.54V138.49h-5.54v60.337zm4.043-58.84v57.043h-2.545v-57.043h2.545zM0 431.491v15.721h111.99v-15.721H0zm109.594 2.695v10.331l-106.45-.599v-9.133l106.45-.599zm50.905-246.887v-8.534h9.732v8.534c0 2.844-2.246 5.24-4.791 5.24-2.695 0-4.941-2.396-4.941-5.24zm1.348-7.187v7.187c0 2.096 1.646 3.892 3.593 3.892 1.946 0 3.593-1.796 3.593-3.892v-7.187h-7.186zm-133.7-2.245v-.45h139.538c-2.096 0-4.342.15-6.438.15v.3h8.384v-.45h4.043v-1.646H16.469v1.646H26.2c-2.097 0-4.342.15-6.438.15v.3h8.384zm-8.983 9.432v-8.534h9.732v8.534c0 2.844-2.246 5.24-4.791 5.24-2.845 0-4.94-2.396-4.94-5.24zm1.198-7.187v7.187c0 2.096 1.647 3.892 3.593 3.892s3.593-1.796 3.593-3.892v-7.187h-7.186zm5.689 165.889h-5.69c-1.197 0-2.245-1.048-2.245-2.395v-25.602c0-1.348 1.048-2.396 2.246-2.396h5.69c1.197 0 2.245 1.048 2.245 2.396v25.602c0 1.347-1.048 2.395-2.246 2.395zm-5.69-29.195c-.598 0-1.047.599-1.047 1.198v25.602c0 .748.449 1.197 1.048 1.197h5.69c.598 0 1.047-.598 1.047-1.197v-25.602c0-.749-.449-1.198-1.048-1.198h-5.69zm16.02 29.195h-5.689c-1.198 0-2.246-1.048-2.246-2.395v-25.602c0-1.348 1.048-2.396 2.246-2.396h5.69c1.197 0 2.245 1.048 2.245 2.396v25.602c0 1.347-1.048 2.395-2.246 2.395zm-5.689-29.195c-.599 0-1.048.599-1.048 1.198v25.602c0 .748.45 1.198 1.048 1.198h5.69c.598 0 1.047-.599 1.047-1.198v-25.602c0-.749-.449-1.198-1.048-1.198h-5.689zm-4.641-3.593h-5.689c-1.198 0-2.246-1.048-2.246-2.395v-25.602c0-1.348 1.048-2.396 2.246-2.396h5.69c1.197 0 2.245 1.048 2.245 2.396v25.602c0 1.347-1.048 2.395-2.246 2.395zm-5.689-29.195c-.599 0-1.048.599-1.048 1.198v25.602c0 .748.45 1.198 1.048 1.198h5.69c.598 0 1.047-.599 1.047-1.198v-25.602c0-.749-.449-1.198-1.048-1.198h-5.689zm16.019 29.195h-5.689c-1.198 0-2.246-1.048-2.246-2.395v-25.602c0-1.348 1.048-2.396 2.246-2.396h5.69c1.197 0 2.245 1.048 2.245 2.396v25.602c0 1.347-1.048 2.395-2.246 2.395zm-5.689-29.195c-.599 0-1.048.599-1.048 1.198v25.602c0 .748.45 1.198 1.048 1.198h5.69c.598 0 1.047-.599 1.047-1.198v-25.602c0-.749-.449-1.198-1.048-1.198h-5.689zm-4.492-3.594h-5.689c-1.197 0-2.245-1.048-2.245-2.395v-25.602c0-1.348 1.048-2.396 2.245-2.396h5.69c1.197 0 2.245 1.048 2.245 2.396v25.602c0 1.347-1.048 2.395-2.245 2.395zm-5.689-29.195c-.598 0-1.048.599-1.048 1.198v25.602c0 .748.45 1.197 1.048 1.197h5.69c.599 0 1.048-.598 1.048-1.197v-25.602c0-.749-.45-1.198-1.048-1.198h-5.69z" fill="#ABAEB7"/><path d="M174.872 431.79h-26.8v15.122h67.524v-4.641h305.876v4.641h35.783V79.95h-42.371v5.09h-63.331v-5.09h-16.319V37.73H305.128v42.22h-37.43v5.09h-51.204v-3.593c0-.598.15-1.047.299-1.497h-41.622v274.735H15.121v-175.92H.6v191.79h174.57v61.385h-.299v-.15zM516.98 82.495h38.029v362.022h-32.04v-10.93h22.009V256.769H426.251v102.258h-3.893V256.769h-24.854v-5.69h24.854v-91.778h3.893v91.778h118.877V93.275H517.13l-.15-10.78zm4.342 358.129H215.596v-2.545h305.726v2.545zm-6.288-351.241h-63.182v-2.546h63.182v2.546zm-65.577-6.887v.449s.15 6.138 0 10.03v.45H415.62v-10.93h33.837zM306.775 79.95V39.376h127.111V79.95H426.7V45.814H313.811v33.987h-7.036v.15zm8.683 0V47.611h109.894V80.1h-11.977v15.87h38.328v-4.94h63.331v4.94h27.848v152.864h-1.797v-37.58h-20.362v37.43h-91.927v-91.778h-8.385v91.778h-24.853v10.63h24.853v102.258h8.385V259.314h114.235v171.878h-21.26v5.389H215.596v-5.389h-25.902V259.314h166.937v-10.63h-38.178v-23.656h-10.78v23.656h-63.78c.449-.898.598-2.096.598-3.593l-.149-11.529c-1.048-32.04-31.89-42.67-46.713-42.819-2.695 0-7.336.299-7.336 2.844l-.15 47.611c0 2.845.899 5.54 2.546 7.486h-2.845V95.821h26.8V90.88h51.204v2.845l.449 1.646h39.376v5.39h-20.961v51.204l21.111-.299v31.291h10.779V95.371h9.582v-15.42h-12.726zm224.729 167.985h-18.865v-36.082h18.865v36.082zm-297.941.749h-47.461c-1.947-1.797-3.144-4.492-3.144-7.486l.299-47.611c0-.299 1.497-1.347 5.839-1.198 14.373.15 44.167 10.331 45.215 41.323l.15 11.528c0 1.348-.3 2.546-.898 3.444zm58.24-114.685h7.187v-.449 16.319H288.06v-46.263h19.613v17.966-.449h-7.037l-.15 12.876zm1.647-11.229h4.642l-.15 9.732h-4.641l.149-9.732zm-32.04-40.724h55.846v10.93h-9.433l-.149 88.334h-6.438V92.976h-39.826v-10.93zm-2.245 7.187h-51.204v-2.545h51.204v2.545zM177.417 368.01H2.845V181.16h10.03v175.921h164.542V82.346h36.831v10.93h-26.8V250.93h122.471v-23.656h6.288v23.656h38.178v5.689H187.448v2.845l.599 174.123 25.153-.299v10.929l-63.181-.299v-10.031h27.249l.149-65.877z" fill="#ABAEB7"/><path d="M13.774 179.963h-.898l-9.433 10.031v1.048l10.331-11.079zm.599 5.54l-10.93 11.678v1.048l10.93-11.678v-1.048zm0 7.186l-10.93 11.679v.898l10.93-11.678v-.899zm0 7.186l-10.93 11.678v.898l10.93-11.678v-.898zm.15 6.888L3.294 218.59v.899l11.379-11.978c0-.15 0-.449-.15-.748zm.299 6.886L3.444 225.777v.898l11.378-11.978v-1.048zm0 7.187L3.444 232.963v.899l11.378-12.128v-.898zm0 7.186L3.444 240.15v.898l11.378-12.127v-.899zm0 7.187L3.444 247.187v1.048l11.378-12.128v-.898zm0 7.037L3.444 254.373v.898l11.378-11.977v-1.048zm0 7.187L3.443 261.56v.898l11.379-12.127v-.898zM183.556 79.95h-.898l-6.588 6.887v.899l7.486-7.786zM14.822 256.619L3.444 268.746v.899l11.378-12.127v-.899zM190.293 79.95h-.898L176.07 94.024v.898l14.223-14.972zM14.822 263.806L3.444 275.783v1.048l11.378-12.127v-.898zM197.031 79.95h-.899l-20.062 21.111v1.048l20.961-22.159zM14.822 270.842L3.444 282.969v.898l11.378-11.977v-1.048zm0 7.187L3.443 290.157v.898l11.379-12.127v-.899zM203.917 79.95h-.898l-26.95 28.297v1.048l27.848-29.345zm-14.672 22.608v-.898l-13.175 13.774v.899l13.175-13.775zm7.636-8.235l13.774-14.522h-.898l-13.774 14.373c.299.15.598.15.898.15zM14.822 285.216L3.444 297.343v.898l11.378-12.127v-.898zM215.895 80.7L202.72 94.622h.898l12.277-12.876V80.7zm-26.799 27.997l-13.176 13.774v.899l13.026-13.775c.15-.149.15-.449.15-.898zM14.822 293.151v-.749L3.294 304.529v.899l11.528-12.127v-.15zM215.895 88.783v-.898l-6.587 7.037h.898l5.689-6.139zm-26.8 27.249l-13.025 13.625v1.048l13.025-13.775v-.898zM14.523 299.737L3.294 311.565v.898l11.379-11.977c0-.15-.15-.449-.15-.749zm174.573-176.518l-13.026 13.624v1.048l13.026-13.774v-.898zM14.822 306.625L3.444 318.752v.898l11.378-12.127v-.898zm174.274-176.219l-13.026 13.625v.898l13.026-13.624v-.899zM14.822 313.812L3.444 325.79v1.048l11.378-12.127v-.899zm174.274-176.37l-13.026 13.775v.898l13.026-13.625v-1.048zM14.822 320.849L3.444 332.976v1.048l11.378-12.127v-1.048zm174.273-176.22l-13.025 13.624v1.048l13.025-13.774v-.898zM14.822 328.035L3.443 340.162v.899l11.379-11.978v-1.048zm174.274-176.22L176.07 165.44v.898l13.026-13.624v-.899zM14.822 335.221L3.444 347.349v.898l11.378-12.127v-.899zm174.273-176.219l-13.025 13.624v.899l13.025-13.625v-.898zM14.822 343.306v-.898L3.444 354.386v1.048l11.378-12.128zm174.273-177.267l-13.025 13.774v.899l13.025-13.625v-1.048zM14.822 350.493v-1.048L3.443 361.573v1.048l11.379-12.128zm2.695 4.193c-.15 0-.3 0-.449-.15h-.15L3.444 368.76v.898l14.073-14.972zM278.178 80.25h-.898l-8.833 9.283c0 .3 0 .599.149.898l9.582-10.18zm-89.082 92.977l-13.026 13.624v1.048l13.026-13.774v-.898zM23.356 355.734c-.3 0-.599 0-.748-.15L9.133 369.807h.898l13.325-14.073zM284.916 80.25h-.899l-13.624 14.373h.898l13.625-14.373zm-95.82 100.162l-13.026 13.625v.898l13.026-13.624v-.899zM291.803 80.25h-1.048L277.13 94.623h.899l13.774-14.373zM189.095 187.449l-13.025 13.774v.899l13.025-13.625v-1.048zM29.794 356.183h-.898L15.87 369.957h.899l13.025-13.774zM298.54 80.25h-.898l-13.624 14.373h.898L298.54 80.25zM189.395 195.234c0-.299-.149-.599-.149-.749l-13.176 13.924v.899l13.325-14.074zM36.831 355.884h-.898l-13.175 13.924h.898l13.175-13.924zm-6.438 14.073l13.625-14.373h-.899l-13.624 14.373h.898zM305.278 80.25h-.898l-13.625 14.373h.898l13.625-14.373zM189.545 201.523v-.299l-13.625 14.223v.898l13.475-14.223v-.599h.15zM312.165 80.25h-1.048l-13.924 14.822h.898l14.074-14.822zM188.646 209.309l-12.576 13.325v.898l12.576-13.175v-1.048zM37.13 369.957l13.625-14.373h-.898l-13.625 14.373h.898zM318.902 80.25h-.898L303.93 95.072h.898l14.074-14.822zM188.497 216.794L176.07 229.82v.898l12.427-13.026v-.898zM43.868 369.957l13.624-14.373h-.898l-13.625 14.373h.899zM325.639 80.25h-.898l-16.02 16.769v1.048l16.918-17.817zM188.497 223.831l-12.427 13.175v.899l12.576-13.176c-.149-.299-.149-.598-.149-.898zM50.755 369.957l13.624-14.373h-.898l-13.624 14.373h.898zm6.737-.001l13.625-14.373h-.899l-13.624 14.373h.898zm261.41-275.333l8.983-9.433v-.898l-19.464 20.512v1.048l9.283-9.732c.15-.898.599-1.348 1.198-1.497zM188.796 230.718l-12.726 13.325v.898l12.726-13.475v-.748zm127.71-127.411l-8.234 8.683c0 .3 0 .749-.15 1.048l8.384-8.833v-.898zm-127.56 135.346v-.898L176.07 251.23v.898l12.876-13.475zM64.23 369.956l13.624-14.373h-.898L63.33 369.956h.898zm124.865-124.267c-.15-.15-.15-.449-.3-.749l-12.726 13.475v.898l13.026-13.624zm128.01-134.897V109.894l-7.935 8.384c0 .299.15.599.15.748l7.785-8.234zM71.116 369.957l13.624-14.373h-.898l-13.624 14.373h.898zM11.828 432.24h-.899l-7.486 7.935v1.048l8.385-8.983zm305.727-315.759l-8.235 8.684v.898l8.235-8.534v-1.048zM192.539 249.133c-.15 0-.15 0 0 0h-.898l-15.421 16.319v.899l16.319-17.218zM77.854 369.956l13.625-14.373h-.899l-13.624 14.373h.898zm-59.139 62.283h-.898L4.94 445.714h.898l12.876-13.475zm298.84-308.571l-8.235 8.684v.898l8.235-8.684v-.898zM190.593 258.265l8.534-8.983h-.899l-22.158 23.356v.899l13.325-13.924c.15-.599.599-1.048 1.198-1.348zM84.591 369.956l13.625-14.373h-.898l-13.625 14.373h.898zm-59.139 62.283h-.898l-12.876 13.475h.898l12.876-13.475zm292.103-301.385l-8.235 8.534v1.049l8.235-8.684v-.899zM197.33 258.265l8.384-8.833h-.898l-8.384 8.833h.898zm-8.534 8.085l-12.726 13.475v.898l12.726-13.325v-1.048zM91.478 369.956l13.625-14.373h-.898L90.58 369.956h.898zM32.19 432.239h-.899l-12.875 13.475h.898l12.876-13.475zm172.027-173.973l8.534-8.984h-.898l-8.534 8.984h.898zm113.338-120.374l-8.235 8.683v.899l8.235-8.534v-1.048zM188.347 275.034v-1.048l-12.277 13.026v.898l12.277-12.876zm-90.131 94.922l13.624-14.373h-.898l-13.624 14.373h.898zm-59.139 62.283h-.898l-12.876 13.475h.898l12.876-13.475zm149.27-150.168v-.898l-12.277 12.876v.898l12.277-12.876zm129.208-136.993l-8.235 8.684v.898l8.235-8.683v-.899zm-98.067 104.205h-.898l-8.534 8.984h.898l8.534-8.984zM45.814 432.24h-.898L32.04 445.714h.898l12.876-13.474zm59.139-62.283l13.625-14.373h-.898l-13.625 14.373h.898zm212.602-217.692l-8.235 8.683v.899l8.235-8.684v-.898zm-91.329 97.017h-.899l-8.534 8.983h.899l8.534-8.983zm-36.981 38.179l-13.175 13.774v1.048l13.175-13.924v-.898zM52.551 432.239h-.898l-12.876 13.475h.899l12.875-13.475zm59.289-62.283l13.625-14.373h-.899l-13.624 14.373h.898zm6.738 0l13.624-14.373h-.898l-13.624 14.373h.898zm-59.139 62.283h-.899l-12.876 13.475h.899l12.876-13.475zm173.674-182.957h-.898l-8.534 8.983h.898l8.534-8.983zm84.442-89.831l-8.235 8.534v1.048l8.235-8.684v-.898zM189.246 294.647l-13.176 13.774v.899l13.176-13.774v-.899zm128.309-128.159l-8.235 8.684v.898l8.235-8.534v-1.048zm-77.705 82.795h-.898l-8.534 8.983h.898l8.534-8.983zm-50.605 52.402l-13.175 13.924v.898l13.175-13.774v-1.048zm-63.93 68.272l13.625-14.373h-.899l-13.624 14.373h.898zM66.176 432.24h-.898l-12.876 13.475h.898l12.876-13.475zm243.892-249.732l7.486-7.935v-.898l-8.234 8.684v.149h.748zm-63.48 66.775h-.899l-8.534 8.983h.899l8.534-8.983zm-57.343 59.588l-13.175 13.774v1.048l13.175-13.924v-.898zm-57.043 61.085l13.624-14.373h-.898l-13.624 14.373h.898zm-59.289 62.283h-.898l-12.876 13.475h.898l12.876-13.475zm180.562-182.957h-.899l-8.534 8.983h.899l8.534-8.983zm-64.23 66.776l-13.175 13.774v1.048l13.175-13.924v-.898zm-50.305 53.898l13.624-14.373h-.898l-13.625 14.373h.899zM79.8 432.239h-.898l-12.876 13.475h.899L79.8 432.239zM414.573 86.837l6.587-6.887h-.898l-5.689 5.989v.898zM259.314 249.283l-8.983 9.433h.898l8.983-9.433h-.898zm-83.244 88.634l13.175-13.775v-.898l-13.175 13.774v.899zm-30.393 32.04l13.625-14.373h-.899l-13.624 14.373h.898zm-59.139 62.282h-.898l-12.876 13.475h.898l12.876-13.475zM266.95 249.283h-.899l-8.833 9.432h.898l8.834-9.432zM414.273 94.174L427.598 80.1c-.15-.15-.299-.15-.449-.3h-.15l-12.576 13.326c-.15.449-.15.748-.15 1.048zM176.07 345.103l13.175-13.774v-1.048l-13.175 13.924v.898zm-82.795 87.136h-.898L79.5 445.714h.898l12.876-13.475zm73.662-77.554h-.898l-14.373 15.272h.898l14.373-15.272zM420.112 95.222l13.026-13.774h-.898l-13.026 13.774h.898zM273.837 249.283h-.899l-8.983 9.433h.898l8.984-9.433zm-97.468 102.708l12.876-13.475v-.898l-13.025 13.774s.149.3.149.599zm-4.042 4.192c-.15-.15-.449-.3-.599-.45l-13.475 14.074h.899l13.175-13.624zm-72.165 76.057h-.898l-12.876 13.475h.898l12.876-13.475zm65.877-62.283l23.206-24.404v-.899l-24.105 25.303h.899zM426.85 95.222l13.025-13.624h-.898l-13.026 13.624h.899zM280.574 249.283h-.898l-8.984 9.432h.899l8.983-9.432zM106.9 432.24h-.899l-12.876 13.475h.899L106.9 432.24zm3.593 2.396l-10.63 11.079h.898l9.732-10.031v-1.048zm62.433-64.679l16.319-17.218v-.898l-17.218 18.116h.899zM433.737 95.222l12.875-13.624h-.898l-12.876 13.624h.899zM287.311 249.283h-.898l-8.833 9.433h.898l8.833-9.433zm20.811-14.673l7.636-7.935c0-.3-.15-.599-.15-.899l-7.486 7.786v1.048zm-13.923 14.672h-.898l-8.984 9.433h.899l8.983-9.433zM451.553 82.644l-11.977 12.577h.898l11.079-11.678v-.899zM176.669 372.95l12.427-13.176v-.898l-12.427 13.026c.15.449.15.748 0 1.048zm-1.048 8.385l13.625-14.373v-.899l-13.625 14.374v.898zM451.554 89.832l-5.241 5.39h.899l4.342-4.492v-.898zM308.123 241.797l8.683-9.132c0-.3-.149-.45-.149-.749l-8.534 8.983v.898zm-7.187 7.486h-.898l-8.983 9.433h.898l8.983-9.433zm17.067-10.78v-.899l-9.731 10.181c-.15.599-.599 1.048-1.198 1.348l-9.133 9.582h.898l19.164-20.212zM175.471 388.672l13.774-14.373v-.899l-13.625 14.373c-.149.15-.149.45-.149.899zM318.004 245.54c0-.299 0-.748.15-1.048l-13.475 14.224h.898l12.427-13.176zM189.245 380.438l-13.325 14.073c0 .3.15.449.15.749l13.026-13.774v-1.048h.149zm132.052-131.156h-.898l-8.983 9.433h.898l8.983-9.433zM189.245 387.473l-12.876 13.474c0 .3 0 .749-.149 1.048l12.876-13.624v-.898h.149zm138.79-138.191h-.898l-8.834 9.433h.898l8.834-9.433zM189.245 394.66l-13.325 14.074v1.048l13.325-14.074v-1.048zm-35.034 37.729h-.898l-4.342 4.641c0 .299 0 .599.149.898l5.091-5.539zm35.034-30.543L175.92 415.77v.898l13.176-13.924v-.898h.149zm145.677-152.564h-.898l-8.983 9.433h.898l8.983-9.433zM160.799 432.538h-.899l-10.48 11.079v.899l11.379-11.978zm261.409-268.895v.899l5.39-5.69v-.898h-.15l-5.24 5.689zm-80.549 85.64h-.898l-8.983 9.432h.898l8.983-9.432zM175.92 423.856l13.325-13.924v-1.048l-13.175 13.923c-.15.45-.15.749-.15 1.049zm-8.384 8.832h-.898l-12.427 13.176h.898l12.427-13.176zm8.833-2.095l12.876-13.624v-.899l-12.876 13.625v.898zm-1.946 1.946h-.899l-12.426 13.176h.898l12.427-13.176zm247.785-260.811l5.24-5.689v-.898l-5.24 5.689v.898zm-73.812 77.705h-.898l-8.833 9.282h.898l8.833-9.282zm73.812-70.518l5.24-5.689v-.899l-5.24 5.54v1.048zm-67.074 70.518h-.898l-8.834 9.282h.899l8.833-9.282zm-165.14 173.973v-1.048l-22.159 23.357h.899l21.26-22.309zm.15 7.037c0-.149-.15-.449-.15-.599v-.299l-15.421 16.17h.898l14.673-15.272zM515.933 87.138l5.39-5.69h-.899l-4.491 4.791v.899zm-93.725 98.815l5.241-5.54v-.898l-5.241 5.539v.899zm94.623-92.528l11.229-11.827h-.899l-10.48 10.93c.15.299.15.598.15.897zm-94.623 99.713l5.24-5.539v-1.048l-5.24 5.689v.898zM195.084 432.24h-.898l-12.876 13.475h.898l12.876-13.475zM522.071 95.072l12.876-13.474h-.898l-12.876 13.474h.898zm-99.863 105.253l5.241-5.689v-.899l-5.241 5.69v.898zM201.971 432.24h-.898l-12.876 13.625h.899l12.875-13.625zm6.887-.149h-.898l-13.025 13.624h.898l13.025-13.624zm319.95-337.019l12.876-13.474h-.898L527.91 95.072h.898zm-106.6 112.44l5.24-5.69v-.898l-5.24 5.54v1.048zm0 7.036l5.24-5.54v-1.048l-5.24 5.689v.899zM535.695 95.072l12.726-13.474h-.898l-12.726 13.474h.898zM215.147 432.688h-.899l-12.576 13.026h.898l12.577-13.026zM542.283 95.222l13.026-13.774h-.899l-12.875 13.625c.149.15.449.15.748.15zM422.208 221.735l5.24-5.54v-1.048l-5.24 5.69v.898zM215.147 438.828l-6.588 6.887h.898l5.69-5.989v-.898zM543.93 100.762l13.175-13.924v-.898L543.93 99.864v.898zm-121.722 128.16l5.24-5.69v-.898l-5.24 5.54v1.048zm-20.212 21.26h-.898l-4.641 4.94c0 .3 0 .749-.15 1.048l5.689-5.988zm20.212-14.075l5.39-5.689v-.899l-5.39 5.69v.898zm121.422-128.01l13.475-14.223v-.898l-13.475 14.223v.898zM408.734 250.181h-.899l-7.785 8.084h.898l7.786-8.084zm134.897-134.897l13.475-14.073v-.899l-13.475 14.224v.748zM422.208 243.145l5.54-5.839v-1.048l-5.54 5.839v1.048zm-6.587 7.036h-.899l-7.785 8.085h.898l7.786-8.085zm127.56-127.261l13.924-14.673v-.898l-13.924 14.672v.899zM414.573 258.266l12.875-13.624v-.899l-13.774 14.523h.899zm128.608-128.16l13.924-14.672v-1.048l-13.924 14.672v1.048zM420.412 259.314l9.282-9.732c-.299 0-.449-.15-.748-.15l-8.984 9.433.45.449zm.15 7.037l15.72-16.619h-.898l-14.822 15.721v.898zm122.62-129.807v.599l13.923-14.672v-.899l-13.923 14.673v.299zM427.448 265.153l-6.737 7.187c0 .299 0 .599.15.898l6.737-7.037v-1.048h-.15zm7.935-7.336l7.636-8.085h-.898l-7.786 8.085h1.048zM543.331 144.18l13.774-14.523v-.898l-13.624 14.373c-.15.299-.15.748-.15 1.048zM427.448 272.34l-6.737 7.037v.898l6.588-6.887v-1.048h.149zm14.822-14.672l7.636-7.935h-.898l-7.636 7.935h.898zm100.911-106.152l13.924-14.672v-1.048l-13.924 14.822v.898zm-122.32 135.795l6.288-6.738v-1.048l-6.438 6.738v1.048h.15zm27.698-29.195l8.085-8.534h-.899l-7.935 8.384c.3.15.599.15.749.15zm94.622-99.414l13.924-14.673v-1.048l-13.924 14.673v1.048zm-122.32 135.796l6.138-6.438v-.899l-6.138 6.438v.899zm41.772-44.767l-7.486 7.936c.299 0 .598 0 1.048-.15l7.486-7.786h-1.048zm80.548-83.992l13.924-14.673v-.898l-13.924 14.672v.899zm-122.32 135.946l6.288-6.737v-.898l-6.288 6.587v1.048zm122.32-128.759l13.924-14.672v-.899l-13.924 14.673v.898zm-73.811 76.806l-7.037 7.486h.898l7.037-7.486h-.898zm-48.509 59.139l6.737-7.037v-.898l-6.737 7.036v.899zm55.246-59.139l-6.887 7.186h.898l6.888-7.186h-.899zm67.074-69.62l13.924-14.672v-1.048l-13.924 14.822v.898zm-122.32 135.795l7.037-7.336v-.898l-7.037 7.336v.898zm122.32-128.608l13.924-14.673v-1.048l-13.924 14.673v1.048zm-60.336 62.432l-6.738 7.187h.899l6.737-7.187h-.898zm60.336-55.396l13.924-14.672v-.898l-13.924 14.672v.898zm-52.551 55.397h-.898l-6.887 7.186h.898l6.887-7.186zm-69.769 73.362l7.037-7.336v-1.048l-7.037 7.336v1.048zm0 7.186l6.737-7.186v-1.048l-6.887 7.186v1.048h.15zm122.32-128.758l13.924-14.673v-.898l-13.924 14.673v.898zm-45.814 48.209h-.898l-7.037 7.337h.898l7.037-7.337zm-76.506 87.737l6.587-6.887v-1.048l-6.587 6.887v1.048zm122.32-128.758l13.924-14.673v-1.048l-13.924 14.822v.899zm-38.926 41.022h-.899l-7.186 7.636h.898l7.187-7.636zm-83.394 94.772l6.587-6.887v-.898l-6.587 6.887v.898zm122.32-128.609l13.924-14.672v-1.048l-13.924 14.672v1.048zm-32.189 33.837h-.899l-7.486 7.935h.899l7.486-7.935zm-90.131 101.959l6.737-7.037v-.898l-6.587 7.037v.898h-.15zm122.32-128.759l13.924-14.672v-.899l-13.924 14.673v.898zm-25.452 26.8h-.898l-7.786 8.235h.899l7.785-8.235zm25.452-19.613l13.924-14.673v-.898l-13.924 14.673v.898zm-18.565 19.614h-.898l-8.235 8.534.899.149 8.234-8.683zM420.861 358.877l7.037-7.336v-.898l-6.887 7.336v.898h-.15zm122.321-121.572l13.924-14.672v-1.048l-13.924 14.672v1.048zm-11.828 12.427h-.899l-8.534 8.984h.899l8.534-8.984zm11.827-5.24l13.924-14.822v-.898l-13.924 14.672v1.048zm-5.09 5.241h-.898l-8.534 8.983h.898l8.534-8.983zm-1.947 9.281l20.961-22.008v-.899l-21.859 23.057c.3-.15.599-.15.898-.15zm5.69.15c.299 0 .449 0 .749.15l14.522-15.271v-.899l-15.271 16.02zm1.946 5.989l13.176-13.924v-1.048l-13.026 13.774c0 .449 0 .748-.15 1.198zm-.599 7.786l13.924-14.672v-.899l-14.073 14.823c0 .299.149.449.149.748zm-.449 7.336v.299l14.224-14.972v-.898l-14.074 14.822c0 .15 0 .449-.15.749zm.449 7.037l13.924-14.672v-.899l-13.924 14.673v.898zm0 7.186l13.924-14.673v-1.048l-13.924 14.673v1.048zm.001 7.186l13.924-14.822v-.898l-13.924 14.672v1.048zm-.001 7.037l13.924-14.673v-.898l-13.924 14.673v.898zm1.198 5.989l12.726-13.475v-.898l-12.876 13.625c0 .149.15.449.15.748zm-.15 7.187l12.876-13.474v-.899l-12.876 13.475v.898zm-.299 7.485l13.175-13.924v-.898l-13.175 13.923v.899zm-.599 7.786l13.774-14.523v-.898l-13.774 14.523v.898zm-.149 7.335l13.924-14.672v-.898l-13.924 14.672v.898zm-.001 7.188l13.924-14.672v-1.048l-13.924 14.672v1.048zm.001 7.036l13.924-14.672v-.899l-13.924 14.673v.898zm-.001 7.187l13.924-14.673v-.898l-13.924 14.672v.899zm0 7.186l13.924-14.672v-1.048l-13.924 14.822v.898zm0 7.187l13.924-14.673v-1.048l-13.924 14.673v1.048zm.001 7.037l13.924-14.673v-.898l-13.924 14.672v.899zm-.001 7.186l13.924-14.672v-.899l-13.924 14.673v.898zm.001 7.187l13.924-14.672v-1.048l-13.924 14.822v.898zm-.001 7.187l13.924-14.673v-1.048l-13.924 14.673v1.048zm.45 6.587l13.474-14.223v-.898l-13.474 14.223v.898zm-15.122 16.02h-.749l-5.09 5.24v.899l5.839-6.139zm14.972-8.685l13.624-14.373v-.898l-13.624 14.223v1.048zm-8.534 8.983h-.898l-11.828 12.427v.898l12.726-13.325zm6.887-.148c-.3 0-.449.149-.749.149h-.299l-13.175 13.924h.898l13.325-14.073zm1.647-2.246v.449l13.624-14.223v-.898l-13.624 14.223v.449zm13.624-7.636l-22.757 23.955h.898l21.859-23.057v-.898zm0 7.186l-16.02 16.769h.899l15.121-15.87v-.899zm0 7.187l-9.282 9.582h.898l8.384-8.684v-.898z" fill="#ABAEB7"/><path d="M463.83 251.079v-91.927h30.543v91.927H463.83zm1.647-90.131v88.634h27.249v-88.634h-27.249zM331.628 17.667h-.15c-.748 0-1.198 0-1.347-.15-.15-.15-.15-.449-.15-.898V.449h6.887v1.198h-5.24l.15.599v4.79l-.15.6h4.941v1.347h-4.941l.15.6v8.084h-.15zm7.636-1.047V4.79c.748 0 1.197 0 1.347.15.15 0 .15.3.15.599v.3l2.096-1.198c.299 0 .749 0 1.347.15 0 .598 0 .898-.149.898-.15.15-.449.15-1.198.15l-2.246 1.197.15.599v10.031c-.749 0-1.198 0-1.348-.15 0-.15-.149-.449-.149-.898zm12.276.897c-.299 0-.299.15-.299.15s-.15 0-.449.15c-.3 0-.749.15-1.048.15h-1.198c-.299 0-.599-.15-.898-.3-.3-.15-.449-.3-.599-.45-.15-.149-.3-.448-.449-.748-.15-.3-.15-.599-.3-.898 0-.3-.149-.599-.149-1.198V8.384c0-.598 0-.898.149-1.197 0-.3.15-.45.3-.899.149-.3.299-.599.449-.748.15-.15.449-.3.599-.45.449-.299.898-.449 1.647-.449.748 0 1.197 0 1.497.15.299 0 .599.15.898.15.3 0 .449.15.599.449l.449.45c.15.149.15.448.3.748 0 .3.149.599.149.898 0 .15.15.599.15 1.048v4.342c0 1.048 0 1.797-.15 2.096 0 .3-.149.749-.149 1.048 0 .3-.15.599-.3.749l-.449.449c-.299.15-.449.3-.749.3zm.15-5.839v-.748c0-2.096-.149-3.444-.299-3.893-.3-.749-.899-1.048-1.797-1.048-.748 0-1.198.15-1.497.449-.15.15-.299.45-.299.599-.15.15-.15.599-.15 1.048 0 .749-.15 1.347-.15 2.096v3.593c0 .45.15 1.048.15 1.498.15.598.299.898.599 1.048.299.15.599.299 1.048.299.449 0 .748 0 .898-.15.299 0 .449-.15.599-.449.15-.15.299-.45.299-.599.15-.15.15-.449.15-.898.449-.599.449-1.647.449-2.845zm10.181 4.941v-5.24c0-2.396-.15-3.893-.299-4.492-.15-.599-.599-.898-1.348-.898l-2.545.898.15.599v10.33c-.749 0-1.198 0-1.348-.15-.149-.149-.149-.448-.149-.898V4.941c.748 0 1.197 0 1.347.15.15 0 .15.299.15.598l2.395-.898c1.647 0 2.545.3 2.845 1.048.299.748.449 2.545.449 5.54v6.437c-.749 0-1.198 0-1.347-.15-.3-.299-.3-.598-.3-1.047zm4.492-4.491v-5.54l.15-.599h-1.198V4.642h1.198l-.15-.899V2.695c.749 0 1.198 0 1.347.15.15.15.15.45.15.898l-.15.749h2.396c0 .599 0 .898-.15 1.048-.149.15-.449.15-1.048.15h-1.198l.15.599v5.839c0 1.796 0 2.994.15 3.593.15.599.449.748.898.748h1.797v1.048l-1.797.15c-1.198 0-1.946-.3-2.246-1.048-.149-.599-.299-2.096-.299-4.491zm20.212-4.642v3.144c0 1.347 0 2.246-.15 2.695-.15.45-.15.898-.299 1.497-.15.45-.3.899-.449 1.048-.15.3-.3.6-.599.899-.3.299-.449.598-.749.748-.749.3-1.497.599-2.395.599l-4.193-.15V.3l4.193-.3c.898 0 1.646.15 2.096.3.449.299.748.449.898.598.15.15.449.45.599.749l.449.898c.15.3.15.6.299 1.048 0 .45.15.899.15 1.198.15.599.15 1.497.15 2.695zm-4.492 8.983c.749 0 1.198-.15 1.647-.599l.599-.599c.15-.15.299-.599.299-.898 0-.3.15-.749.15-1.048 0-.3.15-.749.15-1.348V7.636c0-1.198 0-1.947-.15-2.396-.15-.449-.15-.898-.299-1.347-.15-.45-.15-.749-.3-.899-.149-.15-.299-.449-.599-.599-.299-.449-.898-.598-1.646-.598h-2.695l.149.599V16.17l-.149.598h2.844v-.299zm13.026 1.048c-.3 0-.3.15-.3.15s-.149 0-.449.15c-.299 0-.748.15-1.048.15h-1.198c-.299 0-.598-.15-.898-.3-.299-.15-.449-.3-.599-.45-.149-.149-.299-.448-.449-.748-.15-.3-.15-.599-.299-.898 0-.3-.15-.599-.15-1.198V8.384c0-.598 0-.898.15-1.197 0-.3.149-.45.299-.899.15-.3.3-.599.449-.748.15-.15.449-.3.599-.45.449-.299.898-.449 1.647-.449s1.198 0 1.497.15c.3 0 .599.15.899.15.299 0 .449.15.598.449l.45.45c.149.149.149.448.299.748 0 .3.15.599.15.898 0 .15.149.599.149 1.048v4.342c0 1.048 0 1.797-.149 2.096 0 .3-.15.749-.15 1.048 0 .3-.15.599-.299.749l-.45.449c-.299.15-.598.3-.748.3zm.15-5.839v-.748c0-2.096-.15-3.444-.3-3.893-.299-.749-.898-1.048-1.796-1.048-.749 0-1.198.15-1.498.449-.149.15-.299.45-.299.599-.15.15-.15.599-.15 1.048 0 .749-.15 1.347-.15 2.096v3.593c0 .45.15 1.048.15 1.498.15.598.3.898.599 1.048.299.15.599.299 1.048.299.449 0 .749 0 .898-.15.3 0 .45-.15.599-.449.15-.15.3-.45.3-.599 0-.15.149-.449.149-.898.3-.599.45-1.647.45-2.845zm9.582 5.839c-.3 0-.3.15-.3.15s-.15 0-.449.15c-.299 0-.749.15-1.048.15h-1.198c-.299 0-.599-.15-.898-.3-.3-.15-.449-.3-.599-.45-.15-.149-.299-.448-.449-.748-.15-.3-.15-.599-.3-.898 0-.3-.149-.599-.149-1.198V8.384c0-.598 0-.898.149-1.197 0-.3.15-.45.3-.899.15-.3.299-.599.449-.748.15-.15.449-.3.599-.45.449-.299.898-.449 1.647-.449.748 0 1.198 0 1.497.15.299 0 .599.15.898.15.3 0 .449.15.599.449l.449.45c.15.149.15.448.3.748 0 .3.15.599.15.898 0 .15.149.599.149 1.048v4.342c0 1.048 0 1.797-.149 2.096 0 .3-.15.749-.15 1.048 0 .3-.15.599-.3.749l-.449.449c-.299.15-.449.3-.748.3zm.149-5.839v-.748c0-2.096-.149-3.444-.299-3.893-.3-.749-.898-1.048-1.797-1.048-.748 0-1.198.15-1.497.449-.15.15-.299.45-.299.599-.15.15-.15.599-.15 1.048 0 .749-.15 1.347-.15 2.096v3.593c0 .45.15 1.048.15 1.498.15.598.299.898.599 1.048.299.15.599.299 1.048.299.449 0 .748 0 .898-.15.3 0 .449-.15.599-.449.15-.15.299-.45.299-.599.15-.15.15-.449.15-.898.449-.599.449-1.647.449-2.845zm4.492 4.941V4.791c.748 0 1.198 0 1.347.15.15 0 .15.3.15.599v.3l2.096-1.199c.3 0 .749 0 1.348.15 0 .599 0 .898-.15.898-.15.15-.449.15-1.198.15l-2.246 1.198.15.599v10.031c-.749 0-1.198 0-1.347-.15-.15-.15-.15-.449-.15-.898zM214.997 166.637c0 .449.15.749.15 1.048v2.695c0 .899-.3 1.498-.749 1.797.749.449 1.198 1.048 1.348 1.946.149.749.149 1.497.149 2.246v1.647c0 .299 0 .599-.149 1.048 0 .449-.15.749-.3.898-.15.15-.299.45-.599.749-.299.299-.449.449-.898.599-.898.299-1.946.449-3.144.449l-3.294-.15v-17.367l2.695-.3c1.946 0 3.144.3 3.743.899.15.299.299.449.449.599.449.449.599.748.599 1.197zm-4.791 4.941c.898 0 1.497 0 1.797-.15.299 0 .449-.149.598-.149.15 0 .3-.15.3-.3.15-.15.15-.299.15-.299 0-.15.149-.3.149-.449v-1.348c0-1.497-.149-2.246-.449-2.545-.299-.449-.748-.599-1.198-.599-.449 0-.898-.15-1.497-.15h-.898l.15.599v4.941l-.15.599h1.048v-.15zm.748 8.833c1.049 0 1.947-.149 2.396-.598.449-.15.599-.749.599-1.647v-3.444c0-.15 0-.299-.15-.599 0-.299-.15-.449-.15-.449l-.299-.299-.299-.3c-.15 0-.3-.149-.45-.149-.299-.15-.748-.15-1.497-.15h-1.946l.15.599v6.288l-.15.599h1.796v.149zm11.978-7.785v-1.347c0-.599-.15-1.048-.299-1.198-.15-.15-.599-.299-1.198-.299l-1.348.299h-.449c-.599 0-.898-.299-.898-1.048l2.695-.449c1.347 0 2.096.15 2.395.449.15.15.3.299.3.449.149.15.15.3.15.599 0 .449.149 1.048.149 1.647v9.881c-.748 0-1.198 0-1.347-.149-.15-.15-.15-.45-.15-1.048-.15.149-.449.299-.749.598-.598.599-1.197.899-1.646.899-1.049 0-1.647-.3-1.947-.899-.15-.598-.299-2.245-.299-5.09 0-1.048.449-1.797 1.497-2.096.898-.299 1.946-.449 3.144-.449h.15l-.15-.749zm-.15 1.947c-1.048 0-1.796 0-2.245.149-.45.15-.749.449-.749.899 0 2.994 0 4.491.15 4.791 0 .149.299.149.449.149.299 0 .449 0 .748-.149l.899-.45c.299-.149.599-.299.748-.449l-.149-.599v-4.341h.149zm4.492 1.646v-5.539l.15-.599h-1.198v-1.348h1.198l-.15-.898v-1.048c.748 0 1.198 0 1.347.15.15.149.15.449.15.898l-.15.748h2.396c0 .599 0 .899-.15 1.049-.15.149-.449.149-1.048.149h-1.198l.15.599v5.54c0 1.796 0 2.994.15 3.593.15.599.449.749.898.749h1.797v1.048l-1.797.149c-1.198 0-1.946-.299-2.246-1.048-.149-.299-.299-1.946-.299-4.192zm11.977 4.343v-5.241c0-2.096-.149-3.443-.299-4.192-.15-.748-.599-1.198-1.348-1.198l-2.545.899.15.599v9.282c0 .599 0 .899-.15.899-.15.149-.599.149-1.347.149v-17.517c.748 0 1.197 0 1.347.15.15.15.15.449.15.898v4.342l2.545-.898c1.497 0 2.396.449 2.695 1.347.299.899.449 2.695.449 5.39v6.438c-.748 0-1.198 0-1.347-.15-.3-.299-.3-.748-.3-1.197zm4.492 0v-11.828c.748 0 1.198 0 1.347.149.15 0 .15.3.15.599v.3l2.096-1.198c.3 0 .749 0 1.348.15 0 .599 0 .898-.15.898-.15.15-.449.15-1.198.15l-2.246 1.198.15.598v10.032c-.749 0-1.198 0-1.347-.15 0 0-.15-.449-.15-.898zm12.277.898c-.299 0-.299.149-.299.149s-.15 0-.45.15c-.299 0-.748.15-1.048.15h-1.197c-.3 0-.599-.15-.899-.3a2.06 2.06 0 01-.599-.449c-.149-.15-.299-.449-.449-.748-.149-.3-.149-.599-.299-.899 0-.299-.15-.599-.15-1.197V172.327c0-.599 0-.899.15-1.198.15-.299.15-.449.299-.898.15-.3.3-.599.449-.749.15-.15.45-.299.599-.449.449-.299.899-.449 1.647-.449.749 0 1.198 0 1.497.15.3 0 .599.149.899.149.299 0 .449.15.599.449l.449.45c.149.149.149.449.299.748 0 .3.15.599.15.898 0 .15.15.599.15 1.049v4.341c0 1.048 0 1.797-.15 2.096 0 .3-.15.749-.15 1.048 0 .3-.15.599-.299.749l-.449.449c-.15.15-.45.3-.749.3zm.15-5.69v-.748c0-2.096-.15-3.444-.3-3.893-.299-.749-.898-1.048-1.796-1.048-.749 0-1.198.15-1.498.449-.149.15-.299.449-.299.599-.15.15-.15.599-.15 1.048 0 .749-.149 1.348-.149 2.096v3.593c0 .45.149 1.048.149 1.498.15.598.3.898.599 1.048.3.149.599.299 1.048.299.449 0 .749 0 .899-.15.299 0 .449-.149.598-.449.15-.15.3-.449.3-.599.15-.149.15-.449.15-.898.449-.749.449-1.647.449-2.845zm9.731 5.69c-.299 0-.299.15-.299.15s-.15 0-.449.149c-.3 0-.749.15-1.048.15h-1.198c-.299 0-.599-.15-.898-.299-.3-.15-.45-.3-.599-.45-.15-.149-.3-.449-.449-.748-.15-.3-.15-.599-.3-.899 0-.299-.15-.598-.15-1.197V172.327c0-.599 0-.898.15-1.198.15-.299.15-.449.3-.898.149-.3.299-.599.449-.749.149-.149.449-.299.599-.449.449-.299.898-.449 1.647-.449.748 0 1.197 0 1.497.15.299 0 .599.149.898.149.299 0 .449.15.599.45l.449.449c.15.149.15.449.3.748 0 .3.149.599.149.899 0 .149.15.599.15 1.048v4.342c0 1.048 0 1.796-.15 2.096 0 .299-.149.748-.149 1.048 0 .299-.15.599-.3.748l-.449.449c-.299.15-.449.3-.749.3zm.15-5.689v-.749c0-2.096-.15-3.444-.299-3.893-.3-.748-.899-1.048-1.797-1.048-.749 0-1.198.15-1.497.449-.15.15-.3.449-.3.599-.149.15-.149.599-.149 1.048 0 .749-.15 1.348-.15 2.096v3.594c0 .449.15 1.048.15 1.497.149.599.299.898.599 1.048.299.15.598.299 1.048.299.449 0 .748 0 .898-.149.299 0 .449-.15.599-.45.149-.149.299-.449.299-.599.15-.149.15-.449.15-.898.449-.748.449-1.647.449-2.844zm15.721 4.79v-5.39c0-2.395-.15-3.743-.3-4.341-.15-.599-.599-.749-1.497-.749l-2.396.749.15.598v10.481c-.748 0-1.198 0-1.347-.15-.15-.15-.15-.449-.15-.898v-8.534c0-.449 0-.749-.15-.899 0-.149-.15-.299-.299-.598-.15-.3-.599-.45-1.198-.45l-2.396.899.15.599v10.33c-.748 0-1.198 0-1.347-.15-.15-.149-.15-.449-.15-.898v-11.828c.749 0 1.198 0 1.347.15.15 0 .15.3.15.599l2.396-.898c1.197 0 2.245.299 2.844 1.048l2.845-1.048c1.647 0 2.545.299 2.845 1.048.299.748.449 2.545.449 5.689v6.438c-.749 0-1.198 0-1.348-.15-.598-.748-.598-1.198-.598-1.647zm164.99-29.044l-.15-17.218h.15c.749 0 1.198 0 1.348.15.149.149.149.449.149.898v14.972c0 .599 0 .898-.149.898-.15.299-.599.3-1.348.3zm7.786 0c-.749 0-1.348-.001-1.647-.15-.3-.15-.45-.449-.749-.899l-3.443-7.635 3.892-8.534h1.198c.15 0 .299.15.299.15 0 .149-1.197 2.844-3.593 8.384l4.043 8.684zm3.593-15.422c-.3.15-.45.3-.899.3-.299 0-.599-.15-.898-.3-.299-.149-.299-.449-.299-.748 0-.3.149-.599.299-.749.299-.149.449-.299.898-.299.3 0 .599.15.899.299.299.15.299.449.299.749.15.299 0 .599-.299.748zm-1.498 14.373v-11.827c.749 0 1.198 0 1.348.149.15.15.15.45.15.899v11.828c-.749 0-1.198-.001-1.348-.15-.15 0-.15-.3-.15-.899zm4.792-4.492v-5.539l.149-.599h-1.197v-1.348h1.197l-.149-.898v-1.048c.748 0 1.197 0 1.347.15.15.15.15.449.15.898l-.15.749h2.396c0 .599 0 .898-.15 1.048-.15.15-.449.15-1.048.15h-1.198l.15.598v5.54c0 1.797 0 2.994.15 3.593.149.599.449.749.898.749h1.796v1.048l-1.796.15c-1.198 0-1.947-.3-2.246-1.048-.15-.3-.299-1.797-.299-4.193zm5.839-.898v-1.497c0-1.198 0-1.947.149-2.246 0-.299.15-.599.15-1.048.15-.299.15-.599.3-.749l.449-.449a2.05 2.05 0 01.599-.449c.598-.15 1.197-.299 1.796-.299l2.246.299c0 .749-.299 1.048-.898 1.048h-1.198c-.898 0-1.497.3-1.647 1.048-.15.749-.299 1.797-.299 3.444v3.293c0 .45.149 1.048.149 1.498.15.599.3.898.599 1.048.3.149.599.299 1.048.299l2.246-.299v1.048l-2.246.449c-.898 0-1.647-.15-1.946-.3-.3-.149-.599-.449-.749-.449-.149-.149-.299-.449-.449-.748-.15-.3-.15-.599-.299-.899 0-.299-.15-.598-.15-1.197.15-.749.15-1.797.15-2.845zm13.924 5.39v-5.24c0-2.096-.15-3.444-.3-4.193-.149-.748-.598-1.197-1.347-1.197l-2.545.898.15.599v9.283c0 .598 0 .898-.15.898-.15.15-.599.15-1.348.15v-17.518c.749 0 1.198 0 1.348.15.15.15.15.449.15.898v4.342l2.545-.898c1.497 0 2.395.449 2.695 1.347.299.899.449 2.695.449 5.39v6.438c-.749 0-1.198 0-1.348-.149-.149-.45-.299-.749-.299-1.198zm11.079.748c-1.348.3-2.246.449-2.845.449h-1.198c-.299 0-.599-.149-.748-.149-.3-.15-.449-.15-.599-.3-.15 0-.3-.149-.449-.449-.15-.15-.3-.449-.3-.599-.149-.149-.149-.299-.149-.748 0-.3-.15-.599-.15-.749 0-.15 0-.599-.15-1.048v-3.743c0-1.048 0-1.797.15-2.096 0-.299.15-.599.15-1.048 0-.299.149-.599.149-.749.15-.149.15-.299.3-.598.149-.15.299-.45.449-.45.15-.149.449-.149.599-.299.299-.15.449-.15.748-.15h2.096c.3 0 .599.15.749.3.15.149.449.299.599.449.15.15.299.299.299.599.15.299.15.599.15.748 0 .15.15.449.15.899v2.245l.149 1.348-5.389.15.149.598c0 2.097.15 3.294.3 3.594.299.599.599.898 1.048.898.299 0 .748.15 1.497.15.749 0 1.497-.15 2.545-.3v1.048h-.299zm-5.091-9.133v1.348l-.149.599h3.743l-.15-.599c0-1.348-.15-2.246-.3-2.695-.149-.599-.598-.749-1.347-.749s-1.198.15-1.497.45c-.15.149-.3.748-.3 1.646zm13.475 8.385v-5.24c0-2.395-.149-3.892-.299-4.491-.15-.599-.599-.899-1.348-.899l-2.545.899.15.599v10.33c-.749 0-1.198 0-1.348-.15-.149-.149-.149-.449-.149-.898V138.79c.748 0 1.197 0 1.347.15.15 0 .15.299.15.599l2.395-.898c1.647 0 2.546.299 2.845 1.048.3.748.449 2.545.449 5.539v6.438c-.748 0-1.198 0-1.347-.15-.15-.299-.3-.598-.3-1.048zM365.315 375.795h-6.588v-17.218h.15c.749 0 1.198 0 1.348.15.149.15.149.449.149.898v14.224l-.149.599h3.443c.749 0 1.198 0 1.348.149.149.15.149.449.149.899v.299h.15zm4.492-15.421c-.3.15-.45.299-.899.299-.299 0-.599-.149-.898-.299-.3-.15-.299-.449-.299-.749 0-.299.149-.599.299-.748.299-.15.449-.3.898-.3.3 0 .599.15.899.3.299.149.299.449.299.748 0 .3-.15.599-.299.749zm-1.647 14.373v-11.828c.748 0 1.197 0 1.347.15.15.15.15.449.15.898v11.828c-.749 0-1.198 0-1.348-.15 0 0-.149-.299-.149-.898zm11.528-11.379c0 .749-.898 4.941-2.545 12.427h-2.246l-2.695-12.876c.749 0 1.198 0 1.347.15.15.15.3.449.45.898l1.946 9.882h.299l2.096-10.93c.749 0 1.198 0 1.348.15-.15.15 0 .15 0 .299zm4.042-2.994c-.299.15-.449.299-.898.299-.299 0-.599-.149-.898-.299-.3-.15-.3-.449-.3-.749 0-.299.15-.599.3-.748.299-.15.449-.3.898-.3.3 0 .599.15.898.3.3.149.3.449.3.748 0 .3-.15.599-.3.749zm-1.646 14.373v-11.828c.748 0 1.197 0 1.347.15.15.15.15.449.15.898v11.828c-.749 0-1.198 0-1.348-.15 0 0-.149-.299-.149-.898zm10.63 0v-5.24c0-2.395-.15-3.893-.3-4.492-.15-.598-.599-.898-1.347-.898l-2.546.898.15.599v10.331c-.748 0-1.198 0-1.347-.15-.15-.149-.15-.449-.15-.898v-11.828c.749 0 1.198 0 1.347.15.15 0 .15.299.15.599l2.396-.899c1.647 0 2.545.3 2.844 1.048.3.749.45 2.546.45 5.54v6.438c-.749 0-1.198 0-1.348-.15-.15-.299-.299-.599-.299-1.048zm8.534 5.839h-1.198c-.599 0-1.048 0-1.198-.15-.15-.149-.15-.449-.15-1.048l2.546-.149c.898 0 1.497-.15 1.796-.45.15-.149.15-.449.3-.598v-1.498c0-.149-.15-.299-.3-.449-.149-.299-.748-.449-1.796-.449-2.096 0-3.294-.15-3.594-.299-.299-.15-.599-.749-.599-1.647 0-.899.15-1.498.3-1.947.15-.299.599-.599 1.048-.898-.449-.299-.898-.749-1.048-1.198-.15-.449-.3-1.197-.3-2.246v-2.096c0-.449.15-.748.15-1.197.15-.449.15-.749.449-.899l.599-.599c.449-.299 1.348-.449 2.545-.449h4.043c0 .599 0 .899-.15 1.048-.15.15-.449.15-1.198.15.3.449.45.898.45 1.348 0 .449.149 1.197.149 2.545 0 1.198 0 2.096-.149 2.545 0 .449-.15.749-.45 1.048-.149.299-.599.599-1.048.749-.449.149-.898.149-1.497.149h-1.198c-.299 0-.449 0-.598.15-.15 0-.3.15-.45.15-.149 0-.149.15-.149.299 0 .15-.15.3-.15.3v.748c0 .3.15.449.449.599.3 0 1.048.15 2.396.15 1.347 0 2.245.15 2.695.449.449.299.598 1.048.598 2.246s-.149 2.096-.598 2.545c-.3.749-1.198 1.048-2.695 1.048zm-2.546-13.325c0 1.348.15 2.396.45 2.994.299.599.898.749 1.796.749s1.497-.15 1.647-.599c.15-.449.3-1.347.3-2.845 0-1.497 0-2.395-.15-2.694-.3-.599-.749-.899-1.797-.899-.898 0-1.497.15-1.796.599-.3.449-.45 1.348-.45 2.695zm-25.003 37.28c-.748 0-1.197 0-1.347-.15-.15-.149-.3-.449-.449-.898l-1.198-4.791h-3.893l-1.347 5.839h-1.198c-.15 0-.299 0-.299-.15v-.299c0-.15 1.347-5.689 4.192-16.769h1.647l3.892 17.218zm-3.144-7.186l-.299-.599-1.348-6.438h-.449l-1.347 6.438-.3.599h3.743zm5.54 6.138v-11.827c.748 0 1.197 0 1.347.149.15 0 .15.3.15.599v.3l2.096-1.198c.299 0 .748 0 1.347.15 0 .598 0 .898-.149.898-.15.15-.45.15-1.198.15l-2.246 1.197.15.599v10.031c-.749 0-1.198 0-1.348-.149 0-.15-.149-.449-.149-.899zm13.624.749c-1.347.299-2.246.449-2.844.449h-1.198c-.3 0-.599-.15-.749-.15-.299-.149-.449-.149-.599-.299-.149 0-.299-.15-.449-.449-.15-.15-.299-.449-.299-.599-.15-.15-.15-.3-.15-.749 0-.299-.15-.599-.15-.748 0-.15 0-.599-.149-1.048v-3.743c0-1.048 0-1.797.149-2.096 0-.3.15-.599.15-1.048 0-.3.15-.599.15-.749.149-.15.149-.299.299-.599.15-.15.3-.449.449-.449.15-.15.45-.15.599-.299.3-.15.449-.15.749-.15h2.096c.299 0 .599.15.748.299.15.15.45.3.599.449.15.15.3.3.3.599.15.3.15.599.299.749 0 .15.15.449.15.898v2.246l.15 1.347-5.39.15.15.599c0 2.096.149 3.294.299 3.593.299.599.599.899.898.899.3 0 .749.149 1.497.149.749 0 1.498-.149 2.546-.299v1.048h-.3zm-5.09-9.133v1.348l-.15.598h3.743l-.15-.598c0-1.348-.149-2.246-.299-2.695-.15-.599-.599-.749-1.348-.749-.598 0-1.197.15-1.497.449-.149.15-.299.749-.299 1.647zm12.277.449v-1.347c0-.599-.15-1.048-.3-1.198-.149-.15-.599-.299-1.197-.299l-1.348.299h-.449c-.599 0-.898-.299-.898-1.048l2.695-.449c1.347 0 2.096.15 2.395.449.15.15.299.299.299.449 0 .15.15.3.15.599 0 .449.15 1.048.15 1.647v9.881c-.749 0-1.198 0-1.348-.149-.149-.15-.149-.45-.149-1.048-.15.149-.449.299-.749.599-.599.598-1.198.898-1.647.898-1.048 0-1.647-.3-1.946-.898-.15-.599-.3-2.246-.3-5.091 0-1.048.45-1.797 1.498-2.096.898-.299 1.946-.449 3.144-.449h.149l-.149-.749zm-.15 1.947c-1.048 0-1.797 0-2.246.149-.449.15-.748.449-.748.899 0 2.994 0 4.491.149 4.791 0 .149.3.149.449.149.3 0 .45 0 .749-.149l.898-.45c.3-.149.599-.299.749-.449l-.15-.599v-4.341h.15zM75.758 144.928c0-.748 0-1.048.15-1.197.15-.15.449-.15 1.048-.15h.449v8.534c-.3 0-.599.15-1.198.15-1.048.149-1.796.299-2.395.299-.6 0-1.048 0-1.498-.15a7.19 7.19 0 01-1.047-.449c-.3-.15-.6-.449-.75-.748-.299-.3-.448-.599-.598-.899-.15-.299-.3-.599-.45-1.048-.149-.449-.149-.898-.299-1.198 0-.299-.15-.748-.15-1.497v-4.641c0-1.198 0-2.096.15-2.396 0-.449.15-.898.15-1.347 0-.449.15-.749.3-1.048.15-.3.299-.449.449-.898.15-.3.3-.599.599-.749.15-.15.449-.299.748-.449.6-.3 1.198-.449 2.246-.449l3.144.449c0 .449-.15.748-.3.898-.15.15-.448.15-.598.15h-.45l-1.796-.15c-.749 0-1.348.15-1.647.599l-.599.599c-.15.15-.3.449-.3.898-.149.449-.149.749-.149 1.048 0 .3-.15.749-.15 1.348v4.342c0 1.197 0 2.096.15 2.545.15.449.15.898.3 1.347.15.449.15.749.299.899.15.149.3.449.599.598.3.45.898.599 1.647.599.599 0 1.198-.149 2.096-.299l-.15-.599v-4.941zm9.282-1.646v-1.348c0-.599-.15-1.048-.299-1.198-.15-.149-.599-.299-1.198-.299l-1.347.299h-.45c-.598 0-.897-.299-.897-1.048l2.694-.449c1.348 0 2.096.15 2.396.449.15.15.3.3.3.449.15.15.15.3.15.599 0 .449.149 1.048.149 1.647v9.882c-.749 0-1.198 0-1.348-.15-.15-.15-.15-.449-.15-1.048-.15.15-.449.299-.748.599-.599.599-1.198.898-1.647.898-1.048 0-1.647-.299-1.946-.898-.15-.599-.3-2.246-.3-5.091 0-1.048.45-1.796 1.498-2.096.898-.299 1.946-.449 3.144-.449h.15l-.15-.748zm-.15 1.946c-1.047 0-1.796 0-2.245.15-.449.149-.748.449-.748.898 0 2.994 0 4.491.15 4.791 0 .15.299.15.448.15.3 0 .45 0 .749-.15l.898-.449c.3-.15.6-.3.749-.449l-.15-.599v-4.342h.15zm4.642 5.989v-11.828c.749 0 1.198 0 1.348.15.15 0 .15.299.15.598v.3l2.096-1.198c.299 0 .748 0 1.347.15 0 .599 0 .898-.15.898-.15.15-.449.15-1.197.15l-2.246 1.198.15.598v10.032c-.75 0-1.198 0-1.348-.15 0-.15-.15-.449-.15-.898zm11.079-7.935v-1.348c0-.599-.149-1.048-.299-1.198-.15-.149-.599-.299-1.198-.299l-1.347.299h-.45c-.598 0-.898-.299-.898-1.048l2.695-.449c1.348 0 2.096.15 2.396.449.149.15.299.3.299.449.15.15.15.3.15.599 0 .449.15 1.048.15 1.647v9.882c-.749 0-1.198 0-1.348-.15-.15-.15-.15-.449-.15-1.048-.149.15-.449.299-.748.599-.599.599-1.198.898-1.647.898-1.048 0-1.647-.299-1.946-.898-.15-.599-.3-2.246-.3-5.091 0-1.048.45-1.796 1.497-2.096.899-.299 1.947-.449 3.144-.449h.15l-.15-.748zm-.149 1.946c-1.048 0-1.797 0-2.246.15-.45.149-.749.449-.749.898 0 2.994 0 4.491.15 4.791 0 .15.3.15.45.15.299 0 .448 0 .748-.15l.898-.449c.3-.15.599-.3.749-.449l-.15-.599v-4.342h.15zm8.534 11.828h-1.198c-.599 0-1.048 0-1.198-.15-.15-.15-.15-.449-.15-1.048l2.546-.15c.898 0 1.497-.149 1.796-.449.15-.15.15-.449.15-.599V153.163c0-.15-.15-.299-.15-.449-.15-.3-.748-.449-1.796-.449-2.097 0-3.294-.15-3.594-.3-.299-.149-.599-.748-.599-1.647 0-.898.15-1.497.3-1.946.15-.299.599-.599 1.048-.898-.449-.3-.898-.749-1.048-1.198-.15-.449-.3-1.198-.3-2.246v-2.096c0-.449.15-.748.15-1.198 0-.449.15-.748.449-.898l.599-.599c.449-.299 1.348-.449 2.545-.449h4.043c0 .599 0 .898-.15 1.048-.15.15-.449.15-1.198.15.3.449.449.898.449 1.347 0 .449.15 1.198.15 2.546 0 1.197 0 2.096-.15 2.545 0 .449-.149.748-.449 1.048-.149.299-.599.599-1.048.748-.449.15-.898.15-1.497.15h-1.198c-.299 0-.449 0-.599.15-.149 0-.299.15-.449.15-.149 0-.149.149-.149.299s-.15.299-.15.299v.749c0 .299.15.449.449.599.299 0 1.048.15 2.396.15 1.347 0 2.245.149 2.694.449.45.299.599 1.048.599 2.246 0 1.197-.149 2.096-.599 2.545-.299.898-1.197 1.048-2.694 1.048zm-2.546-13.175c0 1.347.15 2.395.449 2.994.3.599.899.748 1.797.748.898 0 1.497-.149 1.647-.598.15-.45.299-1.348.299-2.845s0-2.396-.149-2.695c-.3-.599-.749-.898-1.797-.898-.898 0-1.497.149-1.797.599-.299.299-.449 1.197-.449 2.695zm15.571 8.085c-1.347.299-2.245.449-2.844.449h-1.198c-.299 0-.599-.15-.749-.15-.299-.15-.449-.15-.598-.299-.15 0-.3-.15-.45-.449-.149-.15-.299-.45-.299-.599-.15-.15-.15-.3-.15-.749 0-.299-.15-.599-.15-.749 0-.149 0-.598-.149-1.048v-3.892c0-1.048 0-1.797.149-2.096 0-.3.15-.599.15-1.048 0-.3.15-.599.15-.749.15-.15.15-.299.299-.599.15-.15.3-.449.45-.449.149-.15.449-.15.598-.299.3-.15.45-.15.749-.15h2.096c.3 0 .599.15.749.299.149.15.449.3.599.449.149.15.299.3.299.599.15.3.15.599.15.749 0 .15.149.449.149.898v2.246l.15 1.348-5.39.149.15.599c0 2.096.15 3.294.299 3.593.3.599.599.899.899.899.299 0 .748.149 1.497.149.749 0 1.497-.149 2.545-.299v1.198h-.15zm-5.09-9.133v1.347l-.15.599h3.743l-.149-.599c0-1.347-.15-2.245-.3-2.695-.15-.599-.599-.748-1.347-.748-.749 0-1.198.149-1.498.449-.149.15-.299.749-.299 1.647zM58.99 392.863c0 .449.15.749.15 1.048v2.695c0 .898-.3 1.497-.75 1.797.75.449 1.198 1.048 1.348 1.946.15.748.15 1.497.15 2.246v1.647c0 .299 0 .598-.15 1.048 0 .449-.15.748-.3.898-.15.15-.299.449-.598.749-.3.299-.45.449-.899.598-.898.3-1.946.45-3.144.45l-3.294-.15v-17.368l2.695-.299c1.947 0 3.145.299 3.743.898.15.3.3.449.45.599.449.599.598.898.598 1.198zm-4.792 5.09c.899 0 1.498 0 1.797-.149.3 0 .45-.15.599-.15.15 0 .3-.15.3-.3.149-.149.149-.299.149-.299 0-.15.15-.299.15-.449v-1.348c0-1.497-.15-2.245-.45-2.545-.299-.449-.748-.599-1.197-.599-.45 0-.898-.149-1.497-.149h-.899l.15.598v4.941l-.15.599h1.048v-.15zm.899 8.834c1.048 0 1.946-.15 2.395-.599.45-.15.6-.749.6-1.647v-3.444c0-.149 0-.299-.15-.598 0-.3-.15-.45-.15-.45l-.3-.299-.3-.299c-.149 0-.299-.15-.448-.15-.3-.15-.749-.15-1.498-.15H53.3l.15.599v6.288l-.15.599h1.797v.15zm11.827-7.935v-1.348c0-.599-.15-1.048-.299-1.197-.15-.15-.599-.3-1.198-.3l-1.347.3h-.45c-.598 0-.898-.3-.898-1.048l2.695-.45c1.348 0 2.096.15 2.396.45.15.149.3.299.3.449.149.149.149.299.149.599 0 .449.15 1.048.15 1.646v9.882c-.749 0-1.198 0-1.348-.15-.15-.149-.15-.449-.15-1.048-.15.15-.449.3-.748.599-.599.599-1.198.898-1.647.898-1.048 0-1.647-.299-1.946-.898-.15-.599-.3-2.246-.3-5.09 0-1.048.45-1.797 1.497-2.096.899-.3 1.947-.45 3.144-.45h.15l-.15-.748zm-.15 1.946c-1.047 0-1.796 0-2.245.15-.45.15-.749.449-.749.898 0 2.995 0 4.492.15 4.791 0 .15.3.15.45.15.299 0 .448 0 .748-.15l.898-.449c.3-.15.6-.299.749-.449l-.15-.599v-4.342h.15zm4.343.749v-1.497c0-1.198 0-1.947.15-2.246 0-.299.149-.599.149-1.048.15-.3.15-.599.3-.749l.449-.449c.15-.15.299-.299.598-.449.6-.15 1.198-.299 1.797-.299l2.246.299c0 .749-.3 1.048-.898 1.048H74.71c-.898 0-1.497.299-1.647 1.048-.15.749-.3 1.797-.3 3.444v3.293c0 .45.15 1.048.15 1.498 0 .449.3.898.599 1.048.3.149.599.299 1.048.299l2.246-.299v1.048l-2.246.449c-.898 0-1.647-.15-1.946-.3-.3-.149-.6-.449-.749-.449-.15-.149-.3-.449-.45-.748-.149-.3-.149-.599-.299-.899 0-.299-.15-.599-.15-1.197.15-.899.15-1.797.15-2.845zm8.683 5.24v-16.469c.749 0 1.198 0 1.348.149.15.15.15.449.15.899v16.469c-.75 0-1.198 0-1.348-.15-.15 0-.15-.299-.15-.898zm7.037 1.197H85.19l-3.593-7.036 3.144-5.839h1.647l-3.144 5.839 3.593 7.036zm16.17-10.331v3.144c0 1.348 0 2.246-.15 2.695-.15.449-.15.899-.299 1.498-.15.449-.3.898-.45 1.048-.149.299-.299.598-.598.898-.3.299-.45.599-.749.749-.749.299-1.497.598-2.395.598l-4.193-.149v-17.368l4.192-.299c.899 0 1.647.149 2.097.299.449.3.748.449.898.599.15.15.449.449.599.749l.449.898c.15.299.15.599.299 1.048 0 .449.15.898.15 1.198.15.299.15 1.198.15 2.395zm-4.492 9.133c.749 0 1.198-.15 1.647-.599l.599-.599c.15-.149.299-.598.299-.898.15-.449.15-.748.15-1.048 0-.299.15-.749.15-1.347v-4.342c0-1.198 0-1.947-.15-2.396-.15-.449-.15-.898-.299-1.347-.15-.449-.15-.749-.3-.899-.149-.149-.299-.449-.599-.598-.299-.45-.898-.599-1.647-.599h-2.694l.15.599v13.774l-.15.599h2.844v-.3zm13.026 1.049c-.3 0-.3.149-.3.149s-.149 0-.449.15c-.299 0-.748.15-1.048.15h-1.198c-.299 0-.598-.15-.898-.3a2.06 2.06 0 01-.599-.449c-.149-.15-.299-.449-.449-.748-.15-.3-.15-.599-.299-.899 0-.299-.15-.599-.15-1.197V398.702c0-.599 0-.899.15-1.198 0-.299.149-.449.299-.898.15-.3.3-.599.449-.749.15-.15.449-.299.599-.449.449-.299.898-.449 1.647-.449s1.198 0 1.497.149c.3 0 .599.15.899.15.299 0 .449.15.598.449l.45.45c.149.149.149.299.299.748 0 .3.15.599.15.898 0 .15.149.599.149 1.048v4.342c0 1.048 0 1.797-.149 2.096 0 .3-.15.749-.15 1.048 0 .3-.15.599-.299.749l-.45.449c-.299.15-.449.15-.748.3zm.15-5.839v-.749c0-2.096-.15-3.444-.3-3.893-.299-.748-.898-1.048-1.797-1.048-.748 0-1.197.15-1.497.449-.149.15-.299.45-.299.599-.15.15-.15.599-.15 1.048 0 .749-.15 1.348-.15 2.096v3.594c0 .449.15 1.048.15 1.497.15.599.3.898.599 1.048.299.15.599.299 1.048.299.449 0 .749 0 .898-.149.3 0 .45-.15.599-.45.15-.149.3-.449.3-.598.149-.15.149-.45.149-.899.45-.748.45-1.647.45-2.844zm9.731 5.839c-.299 0-.299.149-.299.149s-.15 0-.449.15c-.3 0-.749.15-1.048.15h-1.198c-.3 0-.599-.15-.898-.3-.3-.149-.45-.299-.599-.449-.15-.15-.3-.449-.449-.748-.15-.3-.15-.599-.3-.899 0-.299-.15-.599-.15-1.197V398.702c0-.599 0-.899.15-1.198.15-.299.15-.449.3-.898.149-.3.299-.599.449-.749.149-.15.449-.299.599-.449.449-.299.898-.449 1.647-.449.748 0 1.197 0 1.497.149.299 0 .599.15.898.15.299 0 .449.15.599.449l.449.45c.15.149.15.299.299.748 0 .3.15.599.15.898 0 .15.15.599.15 1.048v4.342c0 1.048 0 1.797-.15 2.096 0 .3-.15.749-.15 1.048 0 .3-.149.599-.299.749l-.449.449c-.3.15-.449.15-.749.3zm.15-5.839v-.749c0-2.096-.15-3.444-.299-3.893-.3-.748-.899-1.048-1.797-1.048-.749 0-1.198.15-1.497.449-.15.15-.3.45-.3.599-.149.15-.149.599-.149 1.048 0 .749-.15 1.348-.15 2.096v3.594c0 .449.15 1.048.15 1.497.149.599.299.898.598 1.048.3.15.599.299 1.049.299.449 0 .748 0 .898-.149.299 0 .449-.15.599-.45.149-.149.299-.449.299-.598.15-.15.15-.45.15-.899.449-.748.449-1.647.449-2.844zm4.491 4.791v-11.828c.749 0 1.198 0 1.348.15.15 0 .15.299.15.599v.299l2.096-1.197c.299 0 .748 0 1.347.149 0 .599 0 .899-.15.899-.149.149-.449.149-1.197.149l-2.246 1.198.15.599v10.031c-.749 0-1.198 0-1.348-.15-.15 0-.15-.299-.15-.898zm239.102-282.67c-.898 0-1.347 0-1.497-.15-.15-.149-.15-.449-.15-.898v-6.887l.15-.599h-5.091l.15.599v6.887c0 .599 0 .898-.15.898-.149.15-.598.15-1.347.15h-.15v-17.218h.15c.749 0 1.198 0 1.347.15.15.15.15.449.15.898v5.54l-.15.599h5.091l-.15-.599v-6.588h.15c.748 0 1.198 0 1.347.15.15.15.15.449.15.898v16.17zm7.935-8.983v-1.348c0-.598-.15-1.048-.299-1.197-.15-.15-.599-.3-1.198-.3l-1.347.3h-.45c-.598 0-.898-.3-.898-1.048l2.695-.449c1.348 0 2.096.149 2.396.449.149.149.299.299.299.449.15.15.15.299.15.599 0 .449.149 1.048.149 1.647v9.881c-.748 0-1.197 0-1.347-.15-.15-.149-.15-.449-.15-1.048-.149.15-.449.3-.748.599-.599.599-1.198.899-1.647.899-1.048 0-1.647-.3-1.947-.899-.149-.599-.299-2.246-.299-5.09 0-1.048.449-1.797 1.497-2.096.898-.3 1.946-.449 3.144-.449h.15l-.15-.749zm0 1.946c-1.048 0-1.796 0-2.246.15-.449.15-.748.449-.748.898 0 2.995 0 4.492.15 4.791 0 .15.299.15.449.15.299 0 .449 0 .748-.15l.899-.449c.299-.15.599-.299.748-.449l-.15-.599v-4.342h.15zm4.791 6.139V106.75c.749 0 1.198 0 1.348.15.149.149.149.449.149.898v16.469c-.748 0-1.197 0-1.347-.15-.15-.149-.15-.449-.15-.898zm4.641 0V106.75c.749 0 1.198 0 1.348.15.15.149.15.449.15.898v16.469c-.749 0-1.198 0-1.348-.15-.15-.149-.15-.449-.15-.898z" fill="#ABAEB7"/></symbol><symbol fill="none" viewBox="0 0 38 38" id="star" xmlns="http://www.w3.org/2000/svg"><path d="M18.74 0C16.152 14.055 14.055 16.152 0 18.74c14.055 2.588 16.152 4.685 18.74 18.74 2.585-14.055 4.685-16.152 18.744-18.74C23.424 16.152 21.325 14.055 18.74 0z" fill="#fff"/></symbol><symbol fill="none" viewBox="0 0 25 25" id="star-fill" xmlns="http://www.w3.org/2000/svg"><path d="M12.493 0C10.768 9.37 9.37 10.768 0 12.493c9.37 1.725 10.768 3.123 12.493 12.493 1.724-9.37 3.123-10.768 12.496-12.493C15.616 10.768 14.217 9.37 12.493 0z" fill="#FFB076"/></symbol><symbol fill="none" viewBox="0 0 16 17" id="star-tiny" xmlns="http://www.w3.org/2000/svg"><path d="M8.054.581C6.954 6.54 6.067 7.43.109 8.527c5.958 1.099 6.848 1.986 7.945 7.945 1.1-5.959 1.986-6.848 7.945-7.945-5.96-1.1-6.85-1.99-7.945-7.946z" fill="#FFB076" fill-opacity=".6"/></symbol><symbol fill="none" viewBox="0 0 34 34" id="stars" xmlns="http://www.w3.org/2000/svg"><path d="M12.493 0C10.768 9.37 9.37 10.768 0 12.493c9.37 1.725 10.768 3.123 12.493 12.493 1.724-9.37 3.123-10.768 12.496-12.493C15.616 10.768 14.217 9.37 12.493 0z" fill="#FFB076"/><path d="M26.054 17.581c-1.1 5.959-1.987 6.849-7.945 7.946 5.958 1.099 6.848 1.986 7.945 7.945 1.1-5.959 1.987-6.848 7.945-7.945-5.96-1.1-6.85-1.99-7.945-7.946z" fill="#FFB076" fill-opacity=".6"/></symbol><symbol fill="none" viewBox="0 0 203 203" id="text-circle" xmlns="http://www.w3.org/2000/svg"><path d="M131.232 167.124l-4.381 1.721c-.994.39-1.892.568-2.696.534-.81-.032-1.51-.274-2.101-.728-.594-.445-1.061-1.097-1.399-1.958a3.977 3.977 0 01-.28-1.81 3.802 3.802 0 01.554-1.686c.319-.524.763-.996 1.333-1.416l.416-.383 4.118-1.617.578 1.419-3.108 1.221c-.631.248-1.112.563-1.444.945a2.462 2.462 0 00-.592 1.271c-.065.459-.008.916.171 1.371.199.509.474.915.824 1.218.35.303.781.473 1.292.51.507.046 1.097-.063 1.77-.328l2.627-1.031-4.634-11.799 1.754-.689 5.198 13.235zm-12.933-10.197l5.574 4.736-1.823.726-5.58-4.617-.043-.109 1.872-.736zm-8.414 1.432c.725-.122 1.404-.11 2.036.035a4.538 4.538 0 011.688.796 4.73 4.73 0 011.231 1.437c.328.579.554 1.234.676 1.966l.068.405c.142.847.144 1.623.004 2.326a5.131 5.131 0 01-.736 1.866 4.432 4.432 0 01-1.288 1.296 4.265 4.265 0 01-1.635.64c-.745.125-1.409.105-1.991-.062a3.558 3.558 0 01-1.52-.854 4.692 4.692 0 01-1.042-1.489 7.801 7.801 0 01-.589-1.98l-.135-.8 7.782-1.305.244 1.454-6 1.007.023.135c.103.458.275.891.515 1.3.234.409.551.726.951.949.401.223.906.284 1.516.181a2.457 2.457 0 001.824-1.345c.188-.375.309-.815.363-1.319.054-.504.028-1.071-.077-1.7l-.068-.404a4.774 4.774 0 00-.436-1.363 3.658 3.658 0 00-.798-1.035 2.953 2.953 0 00-1.102-.607 3.017 3.017 0 00-1.356-.059c-.63.105-1.141.323-1.535.653-.393.33-.718.738-.973 1.223l-1.222-.677a5.02 5.02 0 01.694-1.116c.295-.366.68-.688 1.155-.966.468-.277 1.046-.473 1.733-.588zm-13.083 2.412l-.161 5.437c-.013.416.061.78.221 1.091.154.317.394.565.721.744.327.179.734.276 1.222.291.456.013.858-.053 1.208-.199.343-.146.616-.343.819-.591.196-.248.298-.519.307-.812l1.806.054c-.011.377-.12.748-.326 1.114a3.269 3.269 0 01-.87.98c-.38.295-.829.523-1.348.683a5.232 5.232 0 01-1.746.222c-.768-.023-1.44-.173-2.019-.451a3.043 3.043 0 01-1.351-1.222c-.323-.531-.473-1.19-.45-1.977l.146-4.92a7.717 7.717 0 00-.054-1.125 4.385 4.385 0 00-.253-1.033l.005-.156 1.884.055c.085.211.148.49.19.836.041.353.058.68.049.979zm-.449 4.588l.019-1.269 1.825.054c.514.015.974-.014 1.38-.086a3.16 3.16 0 001.026-.331c.278-.155.492-.354.643-.597.15-.236.23-.517.24-.843a1.852 1.852 0 00-.198-.914 1.629 1.629 0 00-.654-.674c-.301-.165-.673-.255-1.116-.268-.553-.016-1.044.087-1.474.308a3.04 3.04 0 00-1.031.83c-.264.33-.41.655-.44.973l-.745-.891c.054-.272.186-.571.398-.897a4.385 4.385 0 012.052-1.649 3.876 3.876 0 011.55-.247c.717.021 1.34.18 1.872.475a3.22 3.22 0 011.216 1.16c.279.484.41 1.018.393 1.604-.017.566-.143 1.061-.377 1.484a2.884 2.884 0 01-.988 1.055 4.56 4.56 0 01-1.523.619 7.924 7.924 0 01-1.969.166l-2.099-.062zm-11.396-6.587l-2.972 12.603-1.768-.417 3.442-14.599 1.616.381-.318 2.032zm6.204 4.663l-.047.2c-.185.786-.448 1.476-.79 2.071-.348.6-.754 1.09-1.218 1.469-.47.377-.982.631-1.535.762-.56.135-1.147.13-1.762-.015-.647-.152-1.184-.399-1.611-.741a3.344 3.344 0 01-1.005-1.27 4.928 4.928 0 01-.445-1.73 9.983 9.983 0 01.073-2.14l.206-.875a9.235 9.235 0 01.889-1.938 4.94 4.94 0 011.17-1.349 3.476 3.476 0 011.467-.687c.54-.107 1.137-.084 1.79.07a3.632 3.632 0 011.562.78 4.01 4.01 0 011.025 1.396 5.47 5.47 0 01.437 1.849 7.46 7.46 0 01-.206 2.148zm-1.815-.217l.047-.2a6.729 6.729 0 00.189-1.48 3.895 3.895 0 00-.214-1.305 2.522 2.522 0 00-.656-1.007c-.297-.271-.683-.462-1.159-.575-.582-.137-1.09-.126-1.522.033-.439.157-.82.412-1.144.764-.323.351-.605.75-.843 1.195l-.54 2.291c-.007.366.025.728.095 1.086.061.362.176.697.345 1.004.16.312.387.583.681.813.287.228.653.395 1.096.5.482.113.92.11 1.317-.011a2.497 2.497 0 001.039-.618c.302-.29.561-.65.776-1.081a6.75 6.75 0 00.493-1.409zm-23.913.277l-1.509-1.029 2.686-12.201-10.373 6.956-1.517-1.035 12.79-8.487 1.177.804-3.254 14.992zm.492.336l-1.331-.908 4.67-7.312 3.126-4.582 1.549 1.057-8.014 11.745zm-10.358-7.067l-1.33-.908 8.013-11.745 1.549 1.056-3.127 4.582-5.105 7.015zm2.096-10.693l-.168.149a6.564 6.564 0 01-1.804 1.161 5.03 5.03 0 01-1.913.421 4.262 4.262 0 01-1.852-.377c-.598-.261-1.142-.666-1.63-1.216-.494-.554-.836-1.144-1.026-1.768a4.247 4.247 0 01-.166-1.891c.078-.636.29-1.256.634-1.858a6.524 6.524 0 011.362-1.657l.168-.15a6.539 6.539 0 011.803-1.16 5.05 5.05 0 011.92-.414 4.41 4.41 0 011.852.377c.59.26 1.13.668 1.624 1.222.493.554.837 1.142 1.032 1.762.19.624.245 1.254.166 1.891a5.16 5.16 0 01-.64 1.851 6.556 6.556 0 01-1.362 1.657zm-1.37-1.2l.169-.15a5.82 5.82 0 00.992-1.132c.264-.399.447-.811.55-1.234.098-.427.1-.851.004-1.272-.1-.416-.317-.812-.65-1.186-.329-.37-.692-.626-1.09-.769a2.725 2.725 0 00-1.258-.136 3.95 3.95 0 00-1.289.403 5.564 5.564 0 00-1.246.847l-.168.15a5.374 5.374 0 00-.971 1.126c-.268.404-.451.82-.55 1.247a2.695 2.695 0 00-.019 1.272c.091.416.304.811.637 1.185.329.37.697.627 1.103.77.403.139.824.182 1.266.129a3.897 3.897 0 001.296-.409 5.69 5.69 0 001.225-.841zm-11.16-8.948l7.594-4.654.944 1.54-9.009 5.521-.919-1.498 1.39-.909zm-3.19-1.917l1.438-.869c.05.145.108.277.174.397.057.118.13.249.218.393.218.355.466.635.743.839.278.204.575.339.89.405.316.067.646.07.992.011a4.005 4.005 0 001.026-.343l.516.28a8.336 8.336 0 01-1.63.781 4.878 4.878 0 01-1.576.267 2.907 2.907 0 01-1.397-.335c-.429-.226-.793-.583-1.092-1.072a2.42 2.42 0 01-.193-.408 1.334 1.334 0 01-.109-.346zm6.259-12.593c.272.684.404 1.349.395 1.997a4.533 4.533 0 01-.423 1.818 4.737 4.737 0 01-1.145 1.507 5.933 5.933 0 01-1.78 1.075l-.38.152c-.8.317-1.557.482-2.274.494-.723.014-1.383-.095-1.98-.327a4.437 4.437 0 01-1.537-.986 4.259 4.259 0 01-.971-1.464c-.28-.701-.399-1.354-.359-1.959a3.56 3.56 0 01.515-1.665 4.66 4.66 0 011.236-1.332 7.793 7.793 0 011.812-.994l.753-.3 2.916 7.333-1.37.544-2.249-5.653-.127.051a4.49 4.49 0 00-1.162.777 2.457 2.457 0 00-.728 1.13c-.133.439-.086.945.142 1.52a2.455 2.455 0 001.7 1.5c.406.104.861.13 1.365.077.505-.054 1.053-.198 1.646-.434l.381-.152c.466-.185.88-.423 1.24-.713.353-.295.634-.627.844-.998.207-.377.328-.778.361-1.205a3.015 3.015 0 00-.227-1.339c-.236-.593-.557-1.047-.962-1.362a4.029 4.029 0 00-1.4-.694l.403-1.337c.405.084.817.232 1.237.443.42.211.817.52 1.188.926.37.399.683.923.94 1.57zm-4.315-13.526a1.106 1.106 0 01-.794-.212c-.232-.175-.365-.444-.398-.807-.033-.363.05-.648.246-.856.19-.213.437-.334.742-.362.298-.027.56.047.785.223.224.169.353.435.386.798.034.363-.045.652-.235.865a1.09 1.09 0 01-.732.351zm-12.724-17.77l.976-4.604c.222-1.045.568-1.893 1.04-2.545.472-.659 1.06-1.11 1.764-1.353.699-.251 1.5-.28 2.405-.089.636.135 1.191.39 1.665.762.468.366.835.83 1.102 1.392.262.555.41 1.185.447 1.892l.092.558-.918 4.328-1.504-.299.693-3.267c.14-.662.143-1.238.007-1.726a2.473 2.473 0 00-.736-1.194 2.675 2.675 0 00-1.237-.612c-.535-.113-1.026-.108-1.472.018-.445.125-.825.39-1.137.797-.317.398-.551.95-.701 1.658l-.586 2.76 12.4 2.63-.39 1.844-13.91-2.95zm15.634-5.18l-7.023 2.045.398-1.922 6.927-2.115.115.025-.417 1.968zm3.439-7.812c-.298.672-.682 1.233-1.15 1.68a4.538 4.538 0 01-1.595.97 4.734 4.734 0 01-1.877.237 5.943 5.943 0 01-2.014-.519l-.375-.166c-.786-.348-1.434-.774-1.944-1.277-.516-.507-.9-1.054-1.152-1.643a4.434 4.434 0 01-.372-1.788 4.263 4.263 0 01.366-1.718c.306-.69.689-1.233 1.148-1.628.462-.4.98-.666 1.55-.798a4.676 4.676 0 011.817-.05c.64.099 1.299.299 1.977.6l.741.328-3.196 7.214-1.348-.597 2.464-5.563-.125-.055a4.506 4.506 0 00-1.368-.286c-.471-.03-.91.06-1.317.27-.407.212-.735.6-.986 1.166a2.458 2.458 0 00.119 2.264c.21.363.51.706.9 1.029.391.323.878.613 1.462.872l.375.166a4.77 4.77 0 001.378.386c.456.046.89.014 1.302-.096a2.95 2.95 0 001.114-.585c.331-.28.597-.647.797-1.1.258-.583.358-1.13.3-1.64a4.015 4.015 0 00-.485-1.486l1.238-.648c.223.348.406.746.55 1.194.143.448.2.947.17 1.496-.027.544-.182 1.134-.464 1.77zm5.191-12.248l-4.45-3.129c-.34-.24-.685-.378-1.032-.416a1.662 1.662 0 00-1.019.192c-.329.174-.634.46-.915.86a2.909 2.909 0 00-.5 1.118c-.066.366-.052.703.043 1.008.1.301.269.535.509.704l-1.04 1.478a2.39 2.39 0 01-.75-.886 3.286 3.286 0 01-.34-1.265 4.2 4.2 0 01.173-1.502 5.23 5.23 0 01.777-1.58c.441-.628.937-1.107 1.487-1.437a3.043 3.043 0 011.765-.454c.62.023 1.253.26 1.898.714l4.026 2.83c.287.203.61.394.969.575a4.39 4.39 0 001.002.358l.127.09-1.084 1.541a3.37 3.37 0 01-.802-.301 6.698 6.698 0 01-.844-.498zm-3.583-2.901l1.05.714-1.05 1.494c-.297.42-.526.82-.689 1.199a3.148 3.148 0 00-.288 1.039 1.71 1.71 0 00.143.865c.115.255.305.477.572.664.271.191.562.304.872.339.31.035.617-.024.923-.175.303-.16.583-.422.837-.784.319-.452.504-.92.555-1.4a3.05 3.05 0 00-.124-1.317c-.131-.403-.321-.704-.571-.903l1.155-.131c.197.194.374.47.53.826a4.374 4.374 0 01.246 2.62 3.882 3.882 0 01-.648 1.431c-.412.586-.888 1.02-1.428 1.3a3.224 3.224 0 01-1.638.377 2.973 2.973 0 01-1.554-.556c-.464-.326-.808-.703-1.032-1.132-.23-.431-.341-.9-.336-1.406 0-.51.107-1.047.322-1.612a7.93 7.93 0 01.945-1.735l1.208-1.717zm11.776-5.885l-8.884-9.422 1.322-1.246 10.29 10.914-1.208 1.139-1.52-1.385zm-7.31 2.61l-.14-.149c-.555-.587-.986-1.187-1.295-1.8a5.311 5.311 0 01-.554-1.826c-.056-.6.013-1.167.209-1.7a3.75 3.75 0 01.982-1.463c.483-.456.985-.768 1.506-.937a3.344 3.344 0 011.614-.139 4.93 4.93 0 011.69.582 9.983 9.983 0 011.745 1.24l.616.653c.48.613.856 1.216 1.129 1.809.277.588.437 1.162.48 1.72a3.473 3.473 0 01-.233 1.603c-.208.51-.556.995-1.044 1.455-.45.424-.954.715-1.511.874a4.01 4.01 0 01-1.73.087 5.472 5.472 0 01-1.784-.653 7.479 7.479 0 01-1.68-1.355zm1.18-1.395l.141.15c.362.383.74.707 1.132.972.398.26.8.44 1.207.54.407.1.808.102 1.202.008.39-.1.762-.316 1.118-.651.435-.411.706-.84.811-1.289a2.84 2.84 0 00-.008-1.375 5.808 5.808 0 00-.533-1.363l-1.614-1.712a5.209 5.209 0 00-.96-.519 3.187 3.187 0 00-1.028-.265 2.45 2.45 0 00-1.053.121c-.35.114-.69.328-1.02.64-.36.34-.6.708-.717 1.105a2.48 2.48 0 00-.056 1.207c.075.413.233.827.474 1.244.241.408.543.803.905 1.187zm12.94-20.113l1.69-.692 8.704 8.96-.093-12.488 1.7-.696.04 15.349-1.32.54L70.43 37.194zm-.552.226l1.491-.61 3.532 7.924 2.103 5.133-1.736.71-5.39-13.157zm11.603-4.753l1.491-.611 5.39 13.157-1.734.711-2.103-5.133-3.044-8.124zm7.771 7.637l-.032-.222a6.542 6.542 0 01.025-2.145 5.036 5.036 0 01.701-1.828 4.27 4.27 0 011.336-1.339c.547-.355 1.184-.586 1.912-.691.735-.107 1.415-.068 2.04.118a4.248 4.248 0 011.67.902c.489.416.89.934 1.203 1.553.312.612.523 1.296.633 2.05l.032.222c.11.754.101 1.468-.024 2.145a5.072 5.072 0 01-.712 1.83 4.43 4.43 0 01-1.335 1.338c-.542.348-1.18.576-1.914.682-.735.107-1.414.07-2.04-.109a4.53 4.53 0 01-1.67-.902 5.161 5.161 0 01-1.192-1.554 6.546 6.546 0 01-.633-2.05zm1.756-.481l.032.222c.076.522.209 1.006.398 1.452.19.44.432.82.728 1.138.303.318.656.553 1.06.705.402.145.851.182 1.348.11.49-.07.903-.233 1.242-.486.343-.26.612-.585.805-.975.194-.39.319-.823.375-1.298a5.559 5.559 0 00-.022-1.506l-.032-.223a5.413 5.413 0 00-.405-1.431 3.798 3.798 0 00-.738-1.146 2.692 2.692 0 00-1.052-.716c-.397-.153-.843-.194-1.34-.121-.49.07-.906.236-1.25.497a2.81 2.81 0 00-.804.985 3.92 3.92 0 00-.373 1.307c-.056.475-.047.97.028 1.486zm13.615-4.388l-.297 8.902-1.806-.06.353-10.561 1.757.058-.007 1.661zm3.356-1.607l-.065 1.678a2.62 2.62 0 00-.428-.073 4.544 4.544 0 00-.448-.034 2.905 2.905 0 00-1.11.158c-.323.12-.599.293-.828.52-.229.226-.414.5-.555.821a4.053 4.053 0 00-.279 1.046l-.518.276a8.318 8.318 0 01.246-1.79 4.897 4.897 0 01.645-1.463 2.913 2.913 0 011.049-.981c.424-.234.923-.34 1.496-.322.13.005.279.026.447.064.168.032.284.065.348.1zm7.065 12.16c-.72-.15-1.348-.407-1.884-.77a4.532 4.532 0 01-1.285-1.355 4.73 4.73 0 01-.627-1.785 5.944 5.944 0 01.083-2.078l.083-.401c.175-.842.455-1.565.84-2.17.386-.611.84-1.102 1.363-1.472a4.433 4.433 0 011.669-.74 4.265 4.265 0 011.757-.005c.739.154 1.35.413 1.833.78.488.367.857.816 1.106 1.346.25.524.394 1.113.432 1.766a7.854 7.854 0 01-.169 2.06l-.165.793-7.725-1.605.299-1.443 5.957 1.237.028-.134a4.49 4.49 0 00-.009-1.398 2.457 2.457 0 00-.542-1.23c-.293-.353-.742-.593-1.347-.719a2.46 2.46 0 00-2.188.593 3.833 3.833 0 00-.816 1.097c-.233.45-.415.988-.545 1.613l-.083.401a4.77 4.77 0 00-.087 1.429c.051.456.174.874.368 1.253.2.38.469.703.807.966a3.01 3.01 0 001.243.547c.624.13 1.18.112 1.666-.053a4.015 4.015 0 001.351-.787l.894 1.074a5.039 5.039 0 01-1.052.789 4.15 4.15 0 01-1.426.481c-.537.088-1.147.061-1.829-.08zm13.667 3.847c.144-.27.349-.452.614-.546.273-.097.571-.06.892.113.321.172.515.397.579.676.074.276.038.549-.106.818a1.076 1.076 0 01-.618.533c-.265.095-.558.056-.88-.117-.321-.172-.518-.396-.592-.672a1.091 1.091 0 01.111-.805zM150.55 49l3.306 3.351c.749.76 1.267 1.517 1.552 2.269.289.757.342 1.496.157 2.218-.175.721-.592 1.407-1.25 2.056-.463.457-.981.78-1.553.97-.563.19-1.153.24-1.769.154-.607-.087-1.216-.31-1.826-.669l-.516-.231-3.107-3.15 1.078-1.09 2.346 2.377c.475.482.954.801 1.436.956.487.15.954.166 1.402.044a2.671 2.671 0 001.192-.696c.39-.384.655-.796.796-1.237.141-.441.128-.904-.039-1.389-.158-.484-.49-.984-.998-1.498l-1.982-2.01-9.024 8.902-1.323-1.341L150.55 49zm-4.286 15.902l2.161-6.987 1.385 1.39-2.05 6.947-.084.082-1.412-1.432zm4.626 7.172c-.397-.619-.653-1.247-.768-1.885a4.535 4.535 0 01.067-1.865 4.734 4.734 0 01.837-1.698 5.951 5.951 0 011.542-1.395l.345-.221c.723-.465 1.436-.77 2.137-.92.707-.151 1.376-.17 2.006-.056a4.43 4.43 0 011.697.674c.502.336.913.753 1.233 1.252.407.635.649 1.253.726 1.854a3.564 3.564 0 01-.188 1.733 4.677 4.677 0 01-.959 1.544c-.434.48-.964.92-1.589 1.321l-.682.438-4.261-6.641 1.241-.796 3.286 5.12.115-.074c.38-.275.711-.603.992-.985.285-.376.451-.792.499-1.248.047-.456-.096-.944-.43-1.465a2.455 2.455 0 00-1.955-1.147 3.83 3.83 0 00-1.354.184c-.485.15-.996.396-1.533.74l-.345.222a4.74 4.74 0 00-1.081.937c-.29.356-.503.736-.638 1.14-.132.41-.173.827-.125 1.252.052.431.212.855.479 1.271.345.537.746.921 1.204 1.153.459.232.961.37 1.507.414l-.14 1.39a5.055 5.055 0 01-1.3-.199 4.142 4.142 0 01-1.342-.681c-.439-.322-.846-.776-1.223-1.363zm7.365 11.079l5.062-1.991c.388-.153.693-.364.916-.633.232-.266.365-.584.401-.955.036-.371-.035-.784-.214-1.238-.167-.424-.386-.769-.658-1.032a2.086 2.086 0 00-.865-.52 1.348 1.348 0 00-.867.036l-.661-1.681a2.386 2.386 0 011.152-.138 3.28 3.28 0 011.243.413c.421.233.807.557 1.159.971.36.418.657.924.891 1.518.281.715.407 1.393.379 2.033a3.034 3.034 0 01-.592 1.723c-.36.506-.907.903-1.641 1.191l-4.58 1.802a7.703 7.703 0 00-1.013.492 4.365 4.365 0 00-.85.64l-.146.056-.69-1.754c.161-.16.392-.329.694-.503a6.72 6.72 0 01.88-.43zm4.395-1.393l-1.174.483-.668-1.7a6.76 6.76 0 00-.623-1.235 3.149 3.149 0 00-.707-.813 1.72 1.72 0 00-.802-.356 1.63 1.63 0 00-.869.111 1.862 1.862 0 00-.763.541c-.2.24-.32.529-.362.867-.034.342.031.719.193 1.131.202.515.49.927.863 1.234a3.03 3.03 0 001.168.622c.408.112.764.12 1.068.02l-.527 1.037c-.271.058-.598.053-.981-.013a4.38 4.38 0 01-2.323-1.238 3.88 3.88 0 01-.837-1.328c-.262-.667-.362-1.303-.299-1.908.065-.6.261-1.124.587-1.574a2.975 2.975 0 011.321-.992c.527-.207 1.031-.287 1.512-.238.487.047.94.211 1.359.494.425.28.815.666 1.168 1.157.354.49.663 1.072.928 1.744l.768 1.954zm-1.574 13.07l12.757-2.226.312 1.79-14.777 2.578-.285-1.636 1.993-.506zm1.847-7.54l.202-.034a7.676 7.676 0 012.215-.09c.689.085 1.299.266 1.83.544.532.284.966.654 1.304 1.11.345.462.572 1.004.68 1.627.114.654.098 1.245-.047 1.772a3.35 3.35 0 01-.773 1.424c-.369.421-.841.784-1.416 1.09a9.968 9.968 0 01-1.996.774l-.885.155a9.199 9.199 0 01-2.131-.055 4.929 4.929 0 01-1.701-.546 3.474 3.474 0 01-1.209-1.077c-.311-.455-.524-1.013-.639-1.673a3.643 3.643 0 01.102-1.743 4.014 4.014 0 01.88-1.492 5.469 5.469 0 011.528-1.129 7.473 7.473 0 012.056-.656zm.515 1.755l-.203.035a6.75 6.75 0 00-1.435.41 3.892 3.892 0 00-1.115.71 2.51 2.51 0 00-.668.998c-.132.38-.156.81-.073 1.292.103.59.313 1.052.629 1.387.317.341.701.591 1.152.75.451.16.928.262 1.431.306l2.319-.405a5.25 5.25 0 00.961-.514 3.2 3.2 0 00.788-.713c.223-.27.383-.585.479-.946.097-.354.106-.755.028-1.204-.085-.487-.261-.89-.528-1.207a2.492 2.492 0 00-.977-.712 3.885 3.885 0 00-1.299-.288c-.474-.023-.97.01-1.489.101zm9.662 21.877l-.353 1.791-12.273 2.331 10.475 6.801-.354 1.801-12.834-8.419.275-1.399 15.064-2.906zm.115-.585l-.311 1.581-8.559-1.417-5.443-1.071.362-1.84 13.951 2.747zm-2.422 12.303l-.311 1.581-13.951-2.747.362-1.84 5.442 1.072 8.458 1.934zm-10.656 2.28l.203.095a6.556 6.556 0 011.777 1.202c.501.48.881 1.011 1.14 1.593.265.584.392 1.202.381 1.851-.004.653-.163 1.312-.475 1.978-.316.672-.723 1.218-1.223 1.637a4.25 4.25 0 01-1.673.898 4.957 4.957 0 01-1.958.148 6.527 6.527 0 01-2.059-.601l-.203-.095a6.518 6.518 0 01-1.777-1.202 5.076 5.076 0 01-1.136-1.601 4.437 4.437 0 01-.382-1.852c.008-.644.17-1.302.485-1.973.316-.672.72-1.219 1.214-1.642a4.523 4.523 0 011.673-.897 5.162 5.162 0 011.954-.14 6.561 6.561 0 012.059.601zm-.565 1.73l-.203-.095a5.842 5.842 0 00-1.432-.467 3.913 3.913 0 00-1.35-.02 2.826 2.826 0 00-1.172.496c-.343.256-.621.611-.834 1.065-.211.448-.304.882-.279 1.304.028.43.152.834.371 1.21s.511.718.877 1.027c.369.317.792.588 1.269.812l.203.095c.472.222.944.372 1.418.451.477.087.931.092 1.363.014.436-.069.828-.23 1.177-.483.346-.247.626-.598.839-1.051.21-.448.302-.887.274-1.318a2.81 2.81 0 00-.38-1.213 3.915 3.915 0 00-.885-1.032 5.739 5.739 0 00-1.256-.795zm-3.835 13.781l-7.266-5.15 1.045-1.474 8.62 6.11-1.016 1.434-1.383-.92zm-.507 3.687l-1.364-.979c.113-.104.212-.209.296-.317.086-.099.178-.217.276-.355.241-.34.4-.678.479-1.014a2.29 2.29 0 00.022-.977 2.63 2.63 0 00-.38-.916 4.047 4.047 0 00-.719-.809l.054-.584a8.28 8.28 0 011.359 1.191c.382.43.67.878.867 1.344.201.47.281.942.241 1.416-.039.483-.225.958-.556 1.426a2.36 2.36 0 01-.3.338c-.119.123-.21.202-.275.236zm-14.04-.8c.521-.519 1.082-.902 1.681-1.149a4.533 4.533 0 011.837-.327 4.729 4.729 0 011.836.461 5.952 5.952 0 011.689 1.212l.289.291c.606.609 1.055 1.241 1.348 1.896.298.659.457 1.308.479 1.948a4.433 4.433 0 01-.302 1.802 4.26 4.26 0 01-.964 1.468c-.535.533-1.088.9-1.66 1.101a3.571 3.571 0 01-1.733.182 4.665 4.665 0 01-1.711-.613 7.818 7.818 0 01-1.627-1.274l-.571-.575 5.594-5.565 1.04 1.045-4.314 4.291.097.097c.349.314.74.568 1.172.763.427.199.869.274 1.325.224.456-.049.903-.292 1.342-.728.29-.29.496-.618.617-.986.125-.363.156-.752.092-1.167a3.81 3.81 0 00-.466-1.285c-.247-.443-.596-.891-1.046-1.343l-.289-.291a4.81 4.81 0 00-1.144-.859 3.628 3.628 0 00-1.249-.383 2.957 2.957 0 00-1.25.142c-.41.142-.791.387-1.142.736-.452.45-.743.923-.873 1.42a3.983 3.983 0 00-.087 1.56l-1.389.156a5.09 5.09 0 01-.079-1.313c.029-.469.157-.954.383-1.456.223-.496.581-.99 1.075-1.481zm-10.738 9.288c.145.269.184.54.117.814-.069.281-.265.509-.585.682-.321.173-.616.21-.884.111a1.08 1.08 0 01-.624-.54 1.072 1.072 0 01-.105-.809c.068-.273.262-.496.582-.669.321-.174.617-.215.888-.125.265.094.469.273.611.536z" fill="#ABAEB7"/><path d="M101.74 83C99.152 97.055 97.055 99.152 83 101.74c14.055 2.588 16.152 4.685 18.74 18.74 2.585-14.055 4.685-16.152 18.744-18.74-14.059-2.588-16.159-4.685-18.744-18.74z" fill="#fff"/></symbol></svg>