<?xml version="1.0" standalone="no"?>
<!DOCTYPE svg PUBLIC "-//W3C//DTD SVG 20010904//EN"
 "http://www.w3.org/TR/2001/REC-SVG-20010904/DTD/svg10.dtd">
<svg version="1.0" xmlns="http://www.w3.org/2000/svg"
 width="700.000000pt" height="700.000000pt" viewBox="0 0 700.000000 700.000000"
 preserveAspectRatio="xMidYMid meet">
<metadata>
Created by potrace 1.14, written by Peter Selinger 2001-2017
</metadata>
<g transform="translate(0.000000,700.000000) scale(0.100000,-0.100000)"
fill="#000000" stroke="none">
<path d="M3444 6963 c-1 -26 -79 -421 -121 -608 -19 -88 -37 -169 -39 -180
-17 -92 -106 -418 -178 -650 -2 -5 -8 -23 -14 -38 -7 -16 -12 -31 -12 -35 0
-4 -16 -48 -35 -99 -82 -217 -194 -442 -294 -588 -228 -333 -520 -560 -982
-763 -54 -24 -355 -132 -368 -132 -5 0 -42 -11 -82 -24 -152 -49 -677 -177
-864 -210 -17 -3 -86 -17 -155 -31 -69 -14 -141 -28 -160 -31 -19 -4 -42 -8
-50 -9 -8 -2 -25 -4 -37 -4 -13 -1 -23 -5 -23 -10 0 -7 96 -28 306 -67 12 -2
66 -13 120 -25 55 -11 110 -22 124 -25 60 -11 306 -68 435 -101 1240 -313
1738 -726 2075 -1718 61 -180 140 -456 165 -573 2 -9 19 -84 38 -167 42 -177
130 -614 151 -742 4 -24 16 -26 17 -2 0 13 2 31 4 39 2 8 6 29 9 45 3 17 8 40
10 51 2 12 7 38 10 59 4 20 13 67 21 103 8 37 17 78 19 92 12 62 70 332 81
375 2 11 19 79 35 150 127 538 300 984 492 1268 136 203 307 377 510 523 91
65 424 244 454 244 3 0 30 11 61 25 73 34 380 137 523 175 224 61 296 79 390
100 214 48 387 85 450 95 19 3 55 11 80 16 25 6 57 13 71 15 146 25 212 42
187 48 -51 11 -83 18 -108 22 -14 3 -81 15 -150 29 -69 13 -136 26 -150 29
-86 16 -401 87 -535 120 -275 69 -588 167 -770 240 -138 56 -338 160 -450 233
-466 305 -733 714 -960 1468 -15 49 -29 96 -31 105 -1 8 -25 103 -52 210 -44
171 -74 301 -87 365 -2 11 -15 76 -29 145 -41 196 -86 431 -86 453 0 16 -16 6
-16 -10z"/>
</g>
</svg>
